<?xml version="1.0" encoding="utf-8"?>
<!-- Generator: Adobe Illustrator 22.1.0, SVG Export Plug-In . SVG Version: 6.00 Build 0)  -->
<svg version="1.1" id="Слой_1" xmlns="http://www.w3.org/2000/svg" xmlns:xlink="http://www.w3.org/1999/xlink" x="0px" y="0px"
	 viewBox="0 0 377.6 86.1" style="enable-background:new 0 0 377.6 86.1;" xml:space="preserve">
<style type="text/css">
	.st0{fill-rule:evenodd;clip-rule:evenodd;}
</style>
<g>
	<path class="st0" d="M359.2,34.3l0.4-0.6l0.3-0.7l0.2-0.5l0.1-0.2l0.3-0.7l0.3-0.8L361,30l0.2-0.8l0.1-0.8l0.1-0.8l0.1-0.7v-0.8
		l0-0.7l-0.1-0.7l-0.1-0.7l-0.2-0.6l-0.3-0.6l-0.3-0.6l-0.4-0.6l-0.4-0.5l-0.5-0.5l-0.5-0.5l-0.5-0.5l-0.6-0.4l-0.6-0.4l-0.6-0.4
		l-0.7-0.4l-0.7-0.3l-0.8-0.3l-0.8-0.3l-0.8-0.2l-0.9-0.2l-0.9-0.2l-0.9-0.1l-1-0.1l-1-0.1l-1-0.1l-0.2,0l-0.8,0h-0.5l1.3-5.5l1-4.4
		h-1h-8.6l-5.6,24l-3.1,13.3h3.1h8.5l1,0l1,0l1-0.1l0.9-0.1l0.9-0.1l0.8-0.2h0.1l0.9-0.2l0.9-0.3l0.8-0.3l0.8-0.3l0.8-0.3l0.8-0.4
		l0.7-0.4l0.7-0.4l0.7-0.4l0.6-0.5l0.6-0.5l0.6-0.5l0.6-0.5l0.6-0.6l0.5-0.6l0.5-0.6l0.5-0.6l0.4-0.6L359.2,34.3L359.2,34.3z
		 M352.2,27.7l0,0.3l0,0.3l-0.1,0.3L352,29l-0.1,0.4l-0.1,0.4l-0.1,0.3l-0.1,0.3l-0.1,0.3l-0.2,0.3l-0.1,0.3l-0.2,0.3l-0.2,0.3
		l-0.2,0.3l-0.2,0.2l-0.2,0.2l-0.2,0.2l-0.3,0.2l-0.2,0.2l-0.3,0.2l-0.3,0.1l-0.3,0.2l-0.3,0.1l-0.3,0.1l-0.3,0.1l-0.3,0.1l-0.3,0.1
		l-0.3,0.1l-0.1,0l-0.2,0l-0.3,0.1l-0.3,0l-0.3,0.1h-0.4l-0.4,0h-0.4h-3.1l2.4-10.2h3h0.1h0.3h0.3l0.3,0l0.3,0l0.3,0l0.3,0l0.3,0.1
		l0.3,0.1l0.3,0.1l0.3,0.1l0.3,0.1l0.3,0.1l0.2,0.1l0.2,0.1l0.2,0.1l0.2,0.1l0.1,0.1l0.1,0.1l0.1,0.1l0.1,0.1l0.1,0.1l0.1,0.1
		l0.1,0.2l0.1,0.2l0,0.2l0,0.2l0,0.2l0,0.2V27.7L352.2,27.7z"/>
	<path class="st0" d="M83.9,73l0.9-0.1l0.9-0.2l0.3,0l0.6-0.1l0.9-0.2l0.8-0.3l0.8-0.3l0.8-0.3l0.8-0.3L91,71l0.4-0.2l0.7-0.4
		l0.6-0.4l0.6-0.4l0.6-0.5l0.6-0.5l0.5-0.5l0.5-0.5l0.5-0.6l0.5-0.6l0.4-0.6l0.4-0.6l0.3-0.6l0.3-0.7l0.1-0.2l0.2-0.5l0.3-0.7
		l0.2-0.8l0.2-0.8l0.1-0.8l0.1-0.8l0.1-0.8v-0.8v-0.8l-0.1-0.7l-0.1-0.7l-0.2-0.7L98.7,54l-0.3-0.6l-0.3-0.6v-0.1l-0.3-0.5l-0.4-0.5
		l-0.4-0.5l-0.5-0.5l-0.5-0.4l-0.5-0.4l-0.6-0.4l-0.6-0.3l-0.6-0.3L93,48.7l-0.7-0.3l-0.7-0.2L91,48.1l-0.3,0L90,47.8l-0.8-0.1
		l-0.8-0.1l-0.8-0.1l-0.9-0.1L86,47.3h-0.1L85,47.2l-0.9,0l-1,0h-0.9H82h-3.7L82,30.1l4-18L88.7,0H86h-4h-7L58.2,18.5L14.7,66.2
		l4.6-19.1H9.7L0,83.5h10.6L28,64.4l-4.4,19.2h9.9L42,50.1l8.8-9.7h7.3h10.7l-1.4,6.8H59l-0.8,0H58l-1,0l-1,0.1L55,47.4l-0.9,0.2
		l-0.9,0.2l-0.9,0.3l-0.8,0.3l-0.8,0.3L50,48.9l-0.7,0.3l-0.7,0.4L47.9,50l-0.6,0.4l-0.6,0.4L46,51.3l-0.5,0.5L45,52.3l-0.5,0.5
		L44,53.3l-0.4,0.5l-0.4,0.5l-0.4,0.5l-0.4,0.5L42.2,56l-0.3,0.6l-0.3,0.6l-0.3,0.5l-0.2,0.6l-0.2,0.5l-0.2,0.6l-0.1,0.6l-0.1,0.6
		l-0.1,0.7l-0.1,0.6l0,0.6l0,0.6l0.1,0.6l0.1,0.6l0.1,0.6l0.2,0.6l0.3,0.6l0.3,0.6l0.3,0.5l0.3,0.5l0.4,0.5l0.4,0.5l0.4,0.5l0.5,0.4
		l0.5,0.4l0.5,0.4l0.6,0.4l0.6,0.3l0.6,0.3l0.6,0.3l0.7,0.3l0.7,0.2l0.7,0.2l0.8,0.2l0.8,0.1l0.8,0.1l0.9,0.1l0.9,0l0.9,0h3.9h3.4
		l-3,12.9h10.5l3.6-12.9h7.2l1,0l1,0H82l0.9-0.1L83.9,73L83.9,73z M63.3,65.7h-5.1h-1.5h-0.5l-0.4,0h-0.4L55,65.6l-0.4,0l-0.4-0.1
		L54,65.4l-0.3-0.1l-0.3-0.1l-0.3-0.1L52.8,65l-0.2-0.1l-0.3-0.1l-0.2-0.1l-0.2-0.1l-0.2-0.1l-0.1-0.2L51.5,64l-0.1-0.2l-0.1-0.2
		l-0.1-0.2L51,63.2L50.9,63l-0.1-0.3l-0.1-0.3l-0.1-0.3l0-0.3l0-0.3v-0.3V61l0-0.4l0-0.4l0-0.3l0.1-0.3l0.1-0.3l0.1-0.3l0.1-0.3
		l0.1-0.3l0.1-0.3l0.1-0.3l0.1-0.3l0.2-0.2l0.2-0.3l0.2-0.2l0.2-0.2l0.2-0.2l0.3-0.2l0.3-0.2l0.3-0.2l0.3-0.1l0.3-0.2l0.3-0.1
		l0.3-0.1l0.3-0.1l0.4-0.1l0.4-0.1L56,55l0.4-0.1l0.4-0.1l0.4,0l0.4,0l0.4,0l0.1,0h0.3H59h6.8L63.3,65.7L63.3,65.7z M70.8,32.6H58.2
		h-0.1l0.1-0.1l16.5-18.3L70.8,32.6L70.8,32.6z M82,65.7l-0.5,0l-0.5,0l-0.6,0h-0.6h-5.3l2.4-11.2H82h1.2h0.5l0.5,0l0.4,0l0.4,0
		l0.4,0l0.4,0.1L86,55l0.2,0l0.3,0.1l0.3,0.1l0.3,0.1l0.3,0.1l0.3,0.1l0.3,0.1l0.2,0.1l0.2,0.1l0.2,0.1l0.1,0.1l0.2,0.2l0.1,0.1
		l0.1,0.1l0.1,0.2l0.1,0.2l0.1,0.2l0.1,0.2l0.1,0.2l0,0.2l0,0.2l0,0.2v0.2v0.2v0.3l0,0.3l0,0.4L89.5,60l-0.1,0.4l-0.1,0.4l-0.1,0.4
		L89,61.5l-0.1,0.3l-0.2,0.3l-0.2,0.3l-0.2,0.3L88.1,63l-0.2,0.3l-0.3,0.3l-0.3,0.2L87.2,64l-0.3,0.2l-0.3,0.2l-0.3,0.2L86,64.7
		l-0.1,0l-0.4,0.2l-0.4,0.1l-0.4,0.1l-0.4,0.1L84,65.4l-0.5,0.1l-0.5,0.1l-0.5,0.1L82,65.7L82,65.7z"/>
	<polygon class="st0" points="367.7,6.2 360.1,37.8 358.8,43.5 360.1,43.5 369.1,43.5 377.6,6.2 367.7,6.2 	"/>
	<polygon class="st0" points="250.2,27.7 251.8,20.3 232.4,20.3 234.3,13.2 255.2,13.2 256.8,13.2 258.2,6.2 255.2,6.2 225.6,6.2 
		219.2,32.7 216.6,43.5 219.2,43.5 249.7,43.5 251.7,34.5 229,34.5 230.9,27.7 250.2,27.7 	"/>
	<polygon class="st0" points="117.3,43.5 119.5,43.5 123.1,43.5 126.6,43.5 134.3,14 145.7,14 151.6,29.2 139.6,43.5 150.6,43.5 
		176.3,12.4 169.4,43.5 178.4,43.5 183.7,22.8 186.2,43.5 192.3,43.5 195.9,43.5 205.8,26.9 208.5,22.1 205.8,33.9 203.5,43.5 
		205.8,43.5 212.9,43.5 219.2,17.2 221.8,6.2 219.2,6.2 208.4,6.2 205.8,10.6 194.3,29.7 192.3,13.1 191.4,6.2 177.7,6.2 170.8,6.2 
		158.9,20.4 152.6,6.2 126.1,6.2 123.1,18.9 119.5,34.2 117.3,43.5 	"/>
	<path class="st0" d="M82.8,43.5H86h5h1.2l2.7-11h3.1h4.9h0.9l0.9,0l0.9-0.1l0.8-0.1l0.8-0.1l0.8-0.1l0.8-0.1l0.2,0l0.6-0.1l0.8-0.2
		l0.8-0.2l0.7-0.3l0.7-0.3l0.7-0.3l0.6-0.4l0.6-0.4l0.6-0.4l0.6-0.4l0.6-0.4l0.6-0.5l0.5-0.5l0.5-0.6l0.5-0.6l0.4-0.6l0.4-0.6
		l0.3-0.4l0.1-0.2l0.4-0.7l0.3-0.7l0.3-0.8l0.3-0.8l0.2-0.8l0.2-0.9l0.1-0.9l0.1-0.8l0.1-0.7l0.1-0.7v-0.7l0-0.7l-0.1-0.6l-0.1-0.6
		l-0.1-0.6l-0.2-0.6l-0.2-0.6l-0.3-0.5l-0.3-0.5l-0.3-0.5l-0.4-0.5l-0.2-0.2l-0.2-0.2l-0.4-0.4L118.4,9l-0.5-0.4l-0.5-0.3l-0.5-0.3
		l-0.6-0.3l-0.6-0.3l-0.6-0.2l-0.6-0.2l-0.6-0.2L113,6.6l-0.7-0.1l-0.8-0.1l-0.8-0.1l-0.8-0.1l-0.8,0H109h-0.5H98.1h-6.6L91,8.4
		l-5,21.5L82.8,43.5L82.8,43.5z M98.1,18.9l1-4.8l7.2-0.1h0.4h0.4l0.3,0l0.4,0l0.3,0.1l0.3,0l0.3,0.1l0.3,0.1l0.1,0l0.1,0l0.3,0.1
		l0.3,0.1l0.2,0.1l0.2,0.1l0.2,0.1l0.2,0.1l0.1,0.1l0.1,0.1l0.1,0.2l0.1,0.1l0.1,0.2l0.1,0.2l0.1,0.2l0.1,0.2l0.1,0.2l0.1,0.2l0,0.2
		l0.1,0.3l0,0.2v0.3l0,0.3v0.3l0,0.3l0,0.4l-0.1,0.4l-0.1,0.4l-0.1,0.4l-0.1,0.3l-0.1,0.3l-0.1,0.3l-0.1,0.3l-0.2,0.3l-0.2,0.3
		l-0.2,0.3l-0.2,0.2l-0.2,0.2l-0.2,0.2l-0.3,0.2l-0.3,0.2l-0.3,0.1v0l-0.3,0.1l-0.3,0.1l-0.3,0.1l-0.4,0.1l-0.4,0.1l-0.4,0.1
		l-0.4,0.1l-0.4,0.1l-0.4,0.1l-0.5,0l-0.5,0.1l-0.5,0l-0.5,0h-0.5h-0.6h-4.6h-1.2L98.1,18.9L98.1,18.9z"/>
	<path class="st0" d="M218.9,74.4l0.3-0.7l0-0.1l0.3-0.6l0.3-0.7l0.2-0.8l0.2-0.7l0.1-0.4l0.1-0.5l0.1-0.5l0.1-0.5v-0.5v-0.5l0-0.5
		l-0.1-0.5l-0.1-0.5l-0.1-0.5l-0.1-0.5l-0.2-0.5l-0.2-0.5l-0.3-0.5l-0.1-0.1L219,63l-0.3-0.5l-0.4-0.5l-0.4-0.5l-0.4-0.4l-0.5-0.4
		l-0.5-0.4l-0.5-0.4l-0.6-0.4l-0.6-0.3l-0.6-0.3l-0.7-0.3l-0.7-0.2l-0.8-0.2l-0.8-0.1l-0.8-0.1l-0.9,0l-0.9,0h-2.8h-1l1-4.7l1.4-6.2
		h-1.4h-8.3l-5.2,22.3l-3.3,14h3.3h8.4h1l1,0l1-0.1l0.9-0.1l0.9-0.1l0.4-0.1l0.5-0.1l0.8-0.2l0.8-0.2l0.8-0.2l0.8-0.3l0.8-0.3
		l0.8-0.3l0.7-0.3l0.7-0.3l0.7-0.4l0.6-0.4l0.6-0.4l0.6-0.5l0.6-0.5l0.5-0.5l0.5-0.5l0.5-0.5l0.5-0.6l0.4-0.6l0.4-0.6l0.4-0.6
		L218.9,74.4L218.9,74.4z M210.9,68.9v0.3l0,0.4l0,0.4l0,0.4l-0.1,0.4l-0.1,0.4l-0.1,0.4l-0.1,0.3l-0.1,0.3l-0.1,0.3l-0.1,0.3
		l-0.1,0.3l-0.1,0.3l-0.2,0.3l-0.2,0.3l-0.2,0.2l-0.2,0.2l-0.2,0.2l-0.2,0.2l-0.2,0.2l-0.2,0.2L208,75l-0.3,0.1l-0.3,0.1l-0.3,0.1
		l-0.3,0.1l-0.3,0.1l-0.3,0.1l-0.3,0.1l-0.3,0.1l0,0l-0.3,0l-0.3,0.1l-0.3,0h-0.4l-0.4,0h-0.4h-3.1l2.4-10.2h2.8h0.2h0.4h0.3l0.3,0
		h0.3l0.3,0l0.3,0l0.3,0.1l0.3,0l0.3,0.1l0.2,0.1l0.2,0.1l0.2,0.1l0.2,0.1l0.2,0.1l0.2,0.1l0.1,0.1l0.1,0.1l0.1,0.1l0.1,0.1l0.1,0.1
		l0.1,0.1l0.1,0.2l0.1,0.2l0.1,0.2l0.1,0.2l0,0.3l0,0.3V68.9L210.9,68.9z"/>
	<polygon class="st0" points="219.2,79.6 218.3,83.5 219.2,83.5 228.6,83.5 236.9,47.2 226.9,47.2 219.2,79.6 	"/>
	<polygon class="st0" points="283.1,19.9 267.7,19.9 270.7,6.2 260.8,6.2 255.2,30.5 252.2,43.5 255.2,43.5 262.1,43.5 265.7,28.2 
		281.2,28.2 277.9,43.5 287.2,43.5 295.8,6.2 286.3,6.2 283.1,19.9 	"/>
	<polygon class="st0" points="193.6,54.7 195.6,47.2 192.3,47.2 152.6,47.2 135.1,59.9 137.8,47.2 128.8,47.2 123.1,71.3 
		120.2,83.5 123.1,83.5 130.2,83.5 132.9,71.5 137.8,68.2 146.2,83.5 157.6,83.5 145.6,62.3 155.9,54.8 170.5,54.8 163.9,83.5 
		173.4,83.5 180.3,54.7 192.3,54.7 193.6,54.7 	"/>
	<polygon class="st0" points="334.2,13.9 335.7,6.2 332.6,6.2 298.8,6.2 296.8,14 310.2,14 302.9,43.5 313.3,43.5 321.1,13.9 
		332.6,13.9 334.2,13.9 	"/>
	<path class="st0" d="M126,47.2h-2.9h-3.6h-4.6l-5.9,6.7L98.1,66L91,73.8l-5,5.6l-3.6,4.1H86h5h1.5l5.5-5.6h0h10.5l-1.2,5.6h1.6h8.3
		l2.3-9.5l3.6-14.9L126,47.2L126,47.2z M110.4,70.1H109h-3.4l3.4-3.6l3.4-3.6L110.4,70.1L110.4,70.1z"/>
</g>
</svg>
