<svg width="1366" height="433" viewBox="0 0 1366 433" fill="none" xmlns="http://www.w3.org/2000/svg">
<g opacity="0.03">
<path fill-rule="evenodd" clip-rule="evenodd" d="M196.944 367.12L201.47 366.617L205.997 365.611H207.505L210.523 365.108L215.049 364.102L219.072 362.594L223.096 361.085L227.119 359.576L231.142 358.067L232.651 357.062L234.663 356.056L238.183 354.044L241.2 352.033L244.218 350.021L247.235 347.506L250.253 344.992L252.767 342.477L255.282 339.963L257.797 336.945L260.311 333.928L262.323 330.911L264.335 327.893L265.843 324.876L267.352 321.355L267.855 320.35L268.861 317.835L270.369 314.315L271.375 310.292L272.381 306.268L272.884 302.245L273.387 298.222L273.89 294.199V290.175V286.152L273.387 282.632L272.884 279.112L271.878 275.591L271.375 271.568L269.867 268.551L268.358 265.533V265.03L266.849 262.516L264.837 260.001L262.826 257.487L260.311 254.972L257.797 252.961L255.282 250.949L252.265 248.937L249.247 247.429L246.23 245.92L242.709 244.914L239.189 243.405L235.668 242.4L232.651 241.897H231.142L227.622 240.388L223.599 239.885L219.575 239.382L215.552 238.879L211.026 238.376L207.505 237.873H207.002L202.476 237.371H197.95H192.921H188.395H187.389H168.781L187.389 151.374L207.505 60.8513L221.084 0H207.505H187.389H152.185L67.6955 93.0372L-151.072 332.922L-127.938 236.868H-176.217L-225 419.925H-171.691L-84.1843 323.87L-106.312 420.427H-56.5241L-13.7765 251.955L30.4799 203.173H67.1925H121.004L113.963 237.371H71.7188H67.6955H66.6896H61.6605L56.6314 237.873L51.6022 238.376L47.076 239.382L42.5498 240.388L38.0236 241.897L34.0003 243.405L29.977 244.914L26.4566 245.92L22.9362 247.429L19.4158 249.44L15.8954 251.452L12.8779 253.463L9.86044 255.475L6.34004 257.99L3.82548 260.504L1.31091 263.019L-1.20365 265.533L-3.71822 268.048L-5.72988 270.562L-7.74152 273.077L-9.75318 275.591L-11.7648 278.106L-12.7707 281.626L-14.2794 284.643L-15.7881 287.661L-17.2969 290.175L-18.3027 293.193L-19.3085 295.707L-20.3143 298.725L-20.8173 301.742L-21.3202 304.76L-21.8231 308.28L-22.326 311.297V314.315V317.332L-21.8231 320.35L-21.3202 323.367L-20.8173 326.384L-19.8114 329.402L-18.3027 332.419L-16.794 335.437L-15.2852 337.951L-13.7765 340.466L-11.7648 342.98L-9.75318 345.495L-7.74152 348.009L-5.22695 350.021L-2.71239 352.033L-0.197822 354.044L2.81965 356.056L5.83714 357.564L8.85461 359.073L11.8721 360.582L15.3925 362.091L18.9129 363.096L22.4333 364.102L26.4566 365.108L30.4799 365.611L34.5032 366.114L39.0294 366.617H43.5556H48.0818H67.6955H84.7945L69.7071 431.491H122.513L140.618 366.617H176.828H181.857H186.886H187.389L191.915 366.114L196.944 367.12ZM93.344 330.408H67.6955H60.1518H57.6372H55.6255H53.6139L51.6022 329.905H49.5906L47.5789 329.402L46.5731 328.899L45.0644 328.396L43.5556 327.893L42.0469 327.39L40.5381 326.887L39.5323 326.384L38.0236 325.882L37.0177 325.379L36.0119 324.876L35.0061 324.373L34.5032 323.367L34.0003 321.858L33.4974 320.853L32.9944 319.847L32.4915 318.841L31.4857 317.835L30.9828 316.829L30.4799 315.321L29.977 313.812L29.474 312.303V310.794V309.286V307.777V306.771V304.76V302.748V301.239L29.977 299.731L30.4799 298.222L30.9828 296.713L31.4857 295.204L31.9886 293.696L32.4915 292.187L32.9944 290.678L33.4974 289.17L34.5032 288.164L35.509 286.655L36.5148 285.649L37.5207 284.643L38.5265 283.638L40.0352 282.632L41.544 281.626L43.0527 280.62L44.5614 280.117L46.0702 279.112L47.5789 278.609L49.0877 278.106L50.5964 277.603L52.6081 277.1L54.6197 276.597H56.6314L58.643 276.094L60.6547 275.591H62.6663H64.678H66.6896H67.1925H68.7013H71.7188H105.917L93.344 330.408ZM131.063 163.947H67.6955H67.1925L67.6955 163.444L150.676 71.4123L131.063 163.947ZM187.389 330.408H184.874H182.36H179.342H176.325H149.67L161.74 274.082H187.389H193.424H195.938H198.453H200.465H202.476H204.488L206.499 274.585L207.505 276.597H208.511L210.02 277.1L211.529 277.603L213.037 278.106L214.546 278.609L216.055 279.112L217.564 279.614L218.569 280.117L219.575 280.62L220.581 281.123L221.084 281.626L222.09 282.632L222.593 283.135L223.096 283.638L223.599 284.643L224.101 285.649L224.604 286.655L225.107 287.661L225.61 288.667V289.672V290.678V291.684V292.69V293.696V295.204V296.713V298.725L225.107 301.742L224.604 303.754L224.101 305.765L223.599 307.777L222.593 309.286L222.09 310.794L221.084 312.303L220.078 313.812L219.072 315.321L218.066 316.829L217.061 318.338L215.552 319.847L214.043 320.853L213.54 321.858L212.032 322.864L210.523 323.87L209.014 324.876L207.505 325.379H207.002L204.991 326.384L202.979 326.887L200.967 327.39L198.956 327.893L197.447 328.899L194.932 329.402L192.418 329.905L189.903 330.408H187.389Z" fill="#0C0E0F"/>
<path fill-rule="evenodd" clip-rule="evenodd" d="M1033.29 139.304L1041.34 102.089H943.77L953.325 66.3832H1058.43H1066.48L1073.52 31.1799H1058.43H909.572L877.386 164.449L864.31 218.763H877.386H1030.77L1040.83 173.502H926.671L936.226 139.304H1033.29Z" fill="#0C0E0F"/>
<path fill-rule="evenodd" clip-rule="evenodd" d="M364.917 218.763H375.981H394.086H411.688L450.412 70.4064H507.744L537.416 146.848L477.067 218.763H532.387L661.636 62.36L626.935 218.763H672.197L698.851 114.662L711.424 218.763H742.102H760.207L809.995 135.281L823.574 111.142L809.995 170.484L798.428 218.763H809.995H845.702L877.386 86.4993L890.461 31.1799H877.386H823.071L809.995 53.3077L752.16 149.362L742.102 65.8803L737.576 31.1799H668.677H633.976L574.129 102.592L542.445 31.1799H409.173L394.086 95.0487L375.981 171.993L364.917 218.763Z" fill="#0C0E0F"/>
<path fill-rule="evenodd" clip-rule="evenodd" d="M191.412 218.763H207.505H232.651H238.686L252.265 163.444H267.855H292.498H297.024H301.55L306.076 162.941L310.1 162.438L314.123 161.935L318.146 161.432L322.169 160.929H323.175L326.193 160.426L330.216 159.42L334.239 158.415L337.76 156.906L341.28 155.397L344.801 153.888L347.818 151.877L350.835 149.865L353.853 147.854L356.87 145.842L359.888 143.83L362.905 141.316L365.42 138.801L367.935 135.784L370.449 132.766L372.461 129.749L374.472 126.732L375.981 124.72L376.484 123.714L378.496 120.194L380.004 116.674L381.513 112.65L383.022 108.627L384.028 104.604L385.034 100.078L385.537 95.5516L386.039 91.5284L386.542 88.008L387.045 84.4877V80.9674V77.4471L386.542 74.4296L386.039 71.4122L385.537 68.3948L384.531 65.3774L383.525 62.36L382.016 59.8454L380.507 57.3309L378.999 54.8164L376.987 52.3019L375.981 51.2961L374.975 50.2903L372.964 48.2787L370.449 45.2612L367.935 43.2496L365.42 41.7409L362.905 40.2322L359.888 38.7235L356.87 37.2148L353.853 36.209L350.835 35.2032L347.818 34.1974L343.292 33.1915L339.771 32.6886L335.748 32.1857L331.725 31.6828L327.702 31.1799H323.678H323.175H320.661H268.358H235.165L232.651 42.2438L207.505 150.368L191.412 218.763ZM268.358 95.0487L273.387 70.9093L309.597 70.4064H311.608H313.62H315.129H317.14L318.649 70.9093H320.158L321.667 71.4122L323.175 71.9151H323.678H324.181L325.69 72.418L327.199 72.9209L328.204 73.4238L329.21 73.9267L330.216 74.4296L331.222 74.9325L331.725 75.4354L332.228 75.9384L332.731 76.9442L333.234 77.4471L333.736 78.4529L334.239 79.4587L334.742 80.4645L335.245 81.4703L335.748 82.4761L336.251 83.4819V84.4877L336.754 85.9964V87.0022V88.5109V90.0197V91.5284V93.0371V95.0487L336.251 97.0603L335.748 99.0719L335.245 101.084L334.742 102.592L334.239 104.101L333.736 105.61L333.234 107.118L332.228 108.627L331.222 110.136L330.216 111.645L329.21 112.65L328.204 113.656L327.199 114.662L325.69 115.668L324.181 116.674L322.672 117.176L321.164 117.679L319.655 118.182L318.146 118.685L316.134 119.188L314.123 119.691L312.111 120.194L310.1 120.697L308.088 121.2L306.076 121.703H303.562L301.047 122.205H298.533H296.018H293.503H290.486H267.352H261.317L268.358 95.0487Z" fill="#0C0E0F"/>
<path fill-rule="evenodd" clip-rule="evenodd" d="M875.877 374.161L877.386 370.64V370.137L878.894 367.12L880.403 363.6L881.409 359.576L882.415 356.056L882.918 354.044L883.421 351.53L883.923 349.015L884.426 346.501V343.986V341.472V338.957L883.923 336.443L883.421 333.928L882.918 331.414L882.415 328.899L881.409 326.385L880.403 323.87L878.894 321.356L878.391 320.853L876.38 316.83L874.871 314.315L872.859 311.801L870.848 309.286L868.836 307.274L866.321 305.263L863.807 303.251L861.292 301.24L858.275 299.228L855.257 297.719L852.24 296.211L848.72 294.702L845.199 293.696L841.176 292.69L837.153 292.187L833.129 291.684H828.603H824.077H809.995H804.966L809.995 268.048L817.036 236.868H809.995H768.253L742.102 349.015L725.506 419.422H742.102H784.347H789.376H794.405L799.434 418.919L803.96 418.416L808.486 417.913L810.498 417.41L813.013 416.907L817.036 415.902L821.059 414.896L825.083 413.89L829.106 412.381L833.129 410.873L837.153 409.364L840.673 407.855L844.193 406.346L847.714 404.335L850.731 402.323L853.749 400.312L856.766 397.797L859.784 395.283L862.298 392.768L864.813 390.254L867.327 387.739L869.842 384.722L871.854 381.704L873.865 378.687L875.877 375.669V374.161ZM835.644 346.501V348.01V350.021V352.033V354.044L835.141 356.056L834.638 358.068L834.135 360.079L833.632 361.588L833.129 363.097L832.626 364.605L832.123 366.114L831.621 367.623L831.118 369.132L830.112 370.64L829.106 372.149L828.1 373.155L827.094 374.161L826.088 375.166L825.083 376.172L824.077 377.178L823.071 378.184L821.059 377.178L819.551 377.681L818.042 378.184L816.533 378.687L815.024 379.19L813.516 379.693L812.007 380.195L810.498 380.698L808.989 381.201H807.481L805.972 381.704H804.463H802.452H800.44H798.428H782.838L794.908 330.408H808.989H809.995H812.007H813.516H815.024H816.533H818.042H819.551L821.059 330.911H822.568L824.077 331.414L825.083 331.917L826.088 332.42L827.094 332.923L828.1 333.425L829.106 333.928L830.112 334.431L830.615 334.934L831.118 335.437L831.621 335.94L832.123 336.443L832.626 336.946L833.129 337.449L833.632 338.454L834.135 339.46L834.638 340.466L835.141 341.472V342.981V344.489V346.501H835.644Z" fill="#0C0E0F"/>
<path fill-rule="evenodd" clip-rule="evenodd" d="M877.386 400.311L872.859 419.924H877.386H924.659L966.401 237.37H916.11L877.386 400.311Z" fill="#0C0E0F"/>
<path fill-rule="evenodd" clip-rule="evenodd" d="M1198.75 100.078H1121.3L1136.39 31.1799H1086.6L1058.43 153.386L1043.35 218.763H1058.43H1093.14L1111.24 141.819H1189.19L1172.6 218.763H1219.37L1262.62 31.1799H1214.84L1198.75 100.078Z" fill="#0C0E0F"/>
<path fill-rule="evenodd" clip-rule="evenodd" d="M748.64 275.088L758.698 237.37H742.102H542.445L454.436 301.239L468.014 237.37H422.752L394.086 358.57L379.502 419.924H394.086H429.793L443.372 359.576L468.014 342.98L510.259 419.924H567.591L507.242 313.309L559.042 275.591H632.467L599.275 419.924H647.051L681.752 275.088H742.102H748.64Z" fill="#0C0E0F"/>
<path fill-rule="evenodd" clip-rule="evenodd" d="M1455.74 69.9035L1463.28 31.1799H1447.69H1277.7L1267.65 70.4064H1335.04L1298.32 218.763H1350.63L1389.85 69.9035H1447.69H1455.74Z" fill="#0C0E0F"/>
<path fill-rule="evenodd" clip-rule="evenodd" d="M408.671 237.37H394.086H375.981H352.847L323.175 271.065L268.358 331.916L232.651 371.143L207.505 399.305L189.4 419.924H207.505H232.651H240.195L267.855 391.762H320.661L314.626 419.924H322.672H364.414L375.981 372.149L394.086 297.216L408.671 237.37ZM330.216 352.535H323.175H306.076L323.175 334.431L340.274 316.326L330.216 352.535Z" fill="#0C0E0F"/>
</g>
</svg>
