<svg width="768" height="103" viewBox="0 0 768 103" fill="none" xmlns="http://www.w3.org/2000/svg">
<path d="M20.752 0.055995C35.728 0.055995 47.2 2.74399 55.168 8.11999C63.136 13.4 67.12 21.656 67.12 32.888C67.12 39.896 65.488 45.608 62.224 50.024C59.056 54.344 54.448 57.752 48.4 60.248C50.416 62.744 52.528 65.624 54.736 68.888C56.944 72.056 59.104 75.416 61.216 78.968C63.424 82.424 65.536 86.072 67.552 89.912C69.568 93.656 71.44 97.352 73.168 101H47.968C46.144 97.736 44.272 94.424 42.352 91.064C40.528 87.704 38.608 84.44 36.592 81.272C34.672 78.104 32.752 75.128 30.832 72.344C28.912 69.464 26.992 66.872 25.072 64.568H13.984V101H-8.48V2.648C-3.584 1.688 1.456 1.016 6.64 0.631996C11.92 0.247995 16.624 0.055995 20.752 0.055995ZM22.048 19.208C20.416 19.208 18.928 19.256 17.584 19.352C16.336 19.448 15.136 19.544 13.984 19.64V46.712H20.32C28.768 46.712 34.816 45.656 38.464 43.544C42.112 41.432 43.936 37.832 43.936 32.744C43.936 27.848 42.064 24.392 38.32 22.376C34.672 20.264 29.248 19.208 22.048 19.208ZM230.127 101V1.208H297.519V20.072H252.591V39.656H292.479V58.088H252.591V82.136H300.831V101H230.127ZM526.831 101C525.775 97.544 524.575 93.992 523.231 90.344C521.983 86.696 520.735 83.048 519.487 79.4H480.607C479.359 83.048 478.063 86.696 476.719 90.344C475.471 93.992 474.319 97.544 473.263 101H449.935C453.679 90.248 457.231 80.312 460.591 71.192C463.951 62.072 467.215 53.48 470.383 45.416C473.647 37.352 476.815 29.72 479.887 22.52C483.055 15.224 486.319 8.11999 489.679 1.208H511.135C514.399 8.11999 517.615 15.224 520.783 22.52C523.951 29.72 527.119 37.352 530.287 45.416C533.551 53.48 536.863 62.072 540.223 71.192C543.583 80.312 547.135 90.248 550.879 101H526.831ZM499.903 23.816C499.423 25.256 498.703 27.224 497.743 29.72C496.783 32.216 495.679 35.096 494.431 38.36C493.183 41.624 491.791 45.224 490.255 49.16C488.815 53.096 487.327 57.224 485.791 61.544H514.159C512.623 57.224 511.135 53.096 509.695 49.16C508.255 45.224 506.863 41.624 505.519 38.36C504.271 35.096 503.167 32.216 502.207 29.72C501.247 27.224 500.479 25.256 499.903 23.816ZM728.82 82.712C729.876 82.808 731.076 82.904 732.42 83C733.86 83 735.54 83 737.46 83C748.692 83 756.996 80.168 762.372 74.504C767.844 68.84 770.58 61.016 770.58 51.032C770.58 40.568 767.988 32.648 762.804 27.272C757.62 21.896 749.412 19.208 738.18 19.208C736.644 19.208 735.06 19.256 733.428 19.352C731.796 19.352 730.26 19.448 728.82 19.64V82.712ZM793.764 51.032C793.764 59.672 792.42 67.208 789.732 73.64C787.044 80.072 783.204 85.4 778.212 89.624C773.316 93.848 767.316 97.016 760.212 99.128C753.108 101.24 745.14 102.296 736.308 102.296C732.276 102.296 727.572 102.104 722.196 101.72C716.82 101.432 711.54 100.76 706.356 99.704V2.504C711.54 1.544 716.916 0.919998 722.484 0.631996C728.148 0.247995 732.996 0.055995 737.028 0.055995C745.572 0.055995 753.3 1.01599 760.212 2.93599C767.22 4.856 773.22 7.88 778.212 12.008C783.204 16.136 787.044 21.416 789.732 27.848C792.42 34.28 793.764 42.008 793.764 51.032Z" fill="white"/>
</svg>
