<svg width="339" height="316" viewBox="0 0 339 316" fill="none" xmlns="http://www.w3.org/2000/svg">
<path fill-rule="evenodd" clip-rule="evenodd" d="M74.168 8.12015C66.2 2.74415 54.728 0.0561523 39.752 0.0561523C35.624 0.0561523 30.92 0.248152 25.64 0.632153C20.456 1.01615 15.416 1.68815 10.52 2.64815V101H32.984V64.5681H44.072C45.992 66.8721 47.912 69.4641 49.832 72.3441C51.752 75.1282 53.672 78.1042 55.592 81.2722C57.608 84.4402 59.528 87.7041 61.352 91.0641C63.272 94.4241 65.144 97.7362 66.968 101H92.168C90.44 97.3521 88.568 93.6562 86.552 89.9122C84.536 86.0722 82.424 82.4242 80.216 78.9682C78.104 75.4162 75.944 72.0562 73.736 68.8882C71.528 65.6242 69.416 62.7442 67.4 60.2481C73.448 57.7522 78.056 54.3442 81.224 50.0242C84.488 45.6082 86.12 39.8962 86.12 32.8882C86.12 21.6562 82.136 13.4002 74.168 8.12015ZM36.584 19.3522C37.928 19.2562 39.416 19.2082 41.048 19.2082C48.248 19.2082 53.672 20.2642 57.32 22.3762C61.064 24.3922 62.936 27.8482 62.936 32.7442C62.936 37.8322 61.112 41.4322 57.464 43.5442C53.816 45.6562 47.768 46.7122 39.32 46.7122H32.984V19.6402C34.136 19.5442 35.336 19.4482 36.584 19.3522ZM250.567 1.20815V101H321.271V82.1362H273.031V58.0882H312.919V39.6562H273.031V20.0722H317.959V1.20815H250.567ZM277.165 296C275.821 295.904 274.621 295.808 273.565 295.712V232.64C275.005 232.448 276.541 232.352 278.173 232.352C279.805 232.256 281.389 232.208 282.925 232.208C294.157 232.208 302.365 234.896 307.549 240.272C312.733 245.648 315.325 253.568 315.325 264.032C315.325 274.016 312.589 281.84 307.117 287.504C301.741 293.168 293.437 296 282.205 296H277.165ZM334.477 286.64C337.165 280.208 338.509 272.672 338.509 264.032C338.509 255.008 337.165 247.28 334.477 240.848C331.789 234.416 327.949 229.136 322.957 225.008C317.965 220.88 311.965 217.856 304.957 215.936C298.045 214.016 290.317 213.056 281.773 213.056C277.741 213.056 272.893 213.248 267.229 213.632C261.661 213.92 256.285 214.544 251.101 215.504V312.704C256.285 313.76 261.565 314.432 266.941 314.72C272.317 315.104 277.021 315.296 281.053 315.296C289.885 315.296 297.853 314.24 304.957 312.128C312.061 310.016 318.061 306.848 322.957 302.624C327.949 298.4 331.789 293.072 334.477 286.64ZM73.736 303.344C75.08 306.992 76.28 310.544 77.336 314H101.384C97.64 303.248 94.088 293.312 90.728 284.192C87.368 275.072 84.056 266.48 80.792 258.416C77.624 250.352 74.456 242.72 71.288 235.52C68.12 228.224 64.904 221.12 61.64 214.208H40.184C36.824 221.12 33.56 228.224 30.392 235.52C27.32 242.72 24.152 250.352 20.888 258.416C17.72 266.48 14.456 275.072 11.096 284.192C7.736 293.312 4.184 303.248 0.440002 314H23.768C24.824 310.544 25.976 306.992 27.224 303.344C28.568 299.696 29.864 296.048 31.112 292.4H69.992L73.736 303.344ZM48.248 242.72C49.208 240.224 49.928 238.256 50.408 236.816C50.984 238.256 51.752 240.224 52.712 242.72C53.672 245.216 54.776 248.096 56.024 251.36C57.368 254.624 58.76 258.224 60.2 262.16C61.64 266.096 63.128 270.224 64.664 274.544H36.296C37.832 270.224 39.32 266.096 40.76 262.16C42.296 258.224 43.688 254.624 44.936 251.36C46.184 248.096 47.288 245.216 48.248 242.72Z" fill="white"/>
</svg>
