<svg width="1366" height="399" viewBox="0 0 1366 399" fill="none" xmlns="http://www.w3.org/2000/svg">
<g opacity="0.03" clip-path="url(#clip0)">
<path d="M127.797 208.733V202.475C163.393 199.775 213.4 182.964 213.4 109.214C213.4 25.7695 148.366 16.8115 126.934 16.8115H-71V31.9051H-44.2721V396.851H-71V411.085H123.363C170.66 411.085 219.682 394.151 219.682 317.824C219.558 265.549 200.837 215.85 127.797 208.733ZM108.213 348.134C108.213 397.832 90.3529 396.973 79.6371 396.973H65.3494V212.292H79.6371C90.3529 212.292 108.213 211.433 108.213 261.131V348.134ZM108.213 149.218C108.213 198.916 90.3529 198.057 79.6371 198.057H65.3494V31.9051H79.6371C90.3529 31.9051 108.213 30.1872 108.213 79.8855V149.218ZM265.008 31.9051H237.418V16.8115H483.389V158.053H474.521C462.943 32.8868 400.495 31.9051 380.911 31.9051H373.767V205.052H379.064C414.66 205.052 428.948 160.63 427.223 120.626H437.077V302.608H427.223C429.071 262.604 414.783 219.164 379.064 219.164H373.767V396.728C448.655 398.446 474.521 329.236 480.679 259.045H490.533V410.963H237.418V396.728H265.008V31.9051ZM732.069 396.973V31.9051H758.797V16.8115H539.555V31.9051H553.842C562.71 31.9051 575.274 33.7458 575.274 68.3506V183.823C575.274 343.716 552.98 396.973 518.246 396.973H512.827V476H521.695C523.419 417.344 544.851 411.208 592.148 411.208H686.62C733.917 411.208 755.225 417.466 757.073 476H765.941V396.973H732.069ZM622.448 31.9051V396.851H550.27C582.418 349.729 585.866 281.379 585.866 183.7V63.933C585.866 32.8868 595.72 31.9051 603.726 31.9051H622.448ZM877.41 59.5153C877.41 34.6048 885.416 24.0516 898.842 24.0516C911.282 24.0516 920.273 34.7275 920.273 59.5153V370.345C920.273 394.274 911.405 404.95 898.842 404.95C885.416 404.95 877.41 394.274 877.41 370.345V59.5153ZM761.507 214.869C761.507 312.548 807.819 420.043 898.719 420.043C989.618 420.043 1035.07 312.548 1035.07 214.869C1035.07 116.331 989.618 8.83527 898.719 8.83527C807.819 8.83527 761.507 116.331 761.507 214.869ZM1083.35 62.0923H1082.49V348.011C1082.49 392.433 1097.64 396.851 1110.08 396.851H1117.22V411.085H1044.18V396.851C1055.76 397.71 1071.77 391.451 1071.77 348.011V31.9051H1044.18V16.8115H1181.39L1216.13 177.564H1217.98L1253.7 16.8115H1390.91V31.9051H1364.18V396.851H1390.91V411.085H1227.83V396.851H1254.56V63.933H1252.83L1175.24 411.208H1160.09L1083.35 62.0923ZM1519.13 59.5153C1519.13 34.6048 1528 24.0516 1540.56 24.0516C1553.98 24.0516 1561.99 34.7275 1561.99 59.5153V370.345C1561.99 394.274 1553.98 404.95 1540.56 404.95C1528.12 404.95 1519.13 394.274 1519.13 370.345V59.5153ZM1404.21 214.869C1404.21 312.548 1449.66 420.043 1540.56 420.043C1631.46 420.043 1677.89 312.548 1677.89 214.869C1677.89 116.331 1631.58 8.83527 1540.56 8.83527C1449.66 8.83527 1404.21 116.331 1404.21 214.869ZM1944.31 146.518H1934.46C1925.59 82.5852 1894.3 32.8868 1858.71 32.8868C1819.54 32.8868 1817.69 90.5615 1817.69 118.172V300.154C1817.69 317.947 1818.55 385.439 1863.14 385.439C1913.03 385.439 1932.61 317.088 1939.75 264.69L1948.74 267.39C1940.74 333.163 1915.73 420.166 1839.12 420.166C1747.24 420.166 1702.77 308.253 1702.77 214.133C1702.77 101.36 1758.08 8.95798 1839.12 8.95798C1855.14 8.95798 1879.28 14.2346 1901.45 34.7275L1931.01 0H1940L1944.31 146.518ZM2045.93 31.9051C1995.18 36.3228 1977.32 115.349 1973.75 158.053H1964.88V16.8115H2236.72V158.053H2226.86C2223.29 115.472 2205.43 36.4455 2155.55 31.9051V396.851H2187.69V411.085H2012.92V396.851H2045.93V31.9051ZM2282.17 31.9051H2255.44V16.8115H2405.21V31.9051H2391.91V292.055H2393.76L2434.77 58.5336V31.9051H2421.47V16.8115H2571V31.9051H2544.27V396.851H2571V411.085H2421.23V396.851H2434.53V120.749H2432.8L2391.79 353.411V396.973H2405.09V411.208H2255.31V396.973H2282.04V31.9051H2282.17Z" fill="#0C0E0F"/>
</g>
<defs>
<clipPath id="clip0">
<rect width="2642" height="399" fill="white" transform="translate(-71)"/>
</clipPath>
</defs>
</svg>
