<svg width="66" height="83" viewBox="0 0 66 83" fill="none" xmlns="http://www.w3.org/2000/svg">
<path fill-rule="evenodd" clip-rule="evenodd" d="M19.7488 78.8672C21.4848 80.0151 23.4522 80.9336 25.4197 81.6223C30.3962 83.3445 35.7199 83.3445 40.6964 81.6223C42.6638 80.9336 44.6313 80.0151 46.3673 78.7524C46.483 78.9819 53.7741 71.8645 53.7741 71.8645C56.3203 68.6501 58.1719 64.9766 59.2136 61.0732C61.9911 58.3181 63.2642 53.9558 63.9586 51.5449C65.0002 47.7566 66.1575 42.1313 63.1484 38.2283L63.0327 37.9985C64.5372 30.9958 66.2732 14.5796 53.6584 6.19922C55.1629 4.70679 55.973 2.64038 55.8573 0.573975C55.8573 0.406006 55.7952 0.299316 55.7165 0.164062C55.6877 0.114746 55.6568 0.0615234 55.6259 0C55.5101 0.057373 55.3944 0.057373 55.2787 0.057373C55.1629 0.057373 55.0472 0.057373 54.9315 0.114746C54.9105 0.114746 54.7622 0.129883 54.5043 0.156006C51.9155 0.419434 38.2789 1.80615 31.4378 0.344482C23.6837 -1.2627 15.1195 4.70679 13.2678 10.6763C10.2588 11.0208 7.5969 12.6279 5.74518 14.9238C2.27323 19.1714 1.23163 25.8298 2.62043 34.7842C2.73615 35.9321 2.85187 37.0803 3.08335 38.2283L2.96763 38.4578C-0.0414381 42.3611 1.00016 47.8713 2.15748 51.6597C2.85187 54.0706 4.12494 58.4329 6.9025 61.188C8.05985 65.0913 9.91156 68.7649 12.3419 72.094C12.3419 72.094 19.6331 79.0969 19.7488 78.8672ZM8.86997 49.823C7.48118 45.0015 8.05985 43.1646 8.52277 42.5906C8.86997 42.1313 9.33289 41.9019 9.91156 42.0166H10.2588C10.7217 42.0166 11.0689 41.7871 11.0689 41.3279C11.0689 41.2129 11.9947 30.7664 18.2443 26.9778C21.3691 25.1411 25.4197 25.1411 30.1647 27.2075C40.002 31.3403 47.2931 31.1106 51.691 30.0774C56.7831 33.751 55.2786 39.7207 54.9315 40.8687V40.9834C54.8157 41.2129 54.9315 41.4426 55.0472 41.6721C55.1629 41.9019 55.5101 42.0166 55.7416 41.9019C56.3203 41.7871 57.0147 42.0166 57.3618 42.4758C57.8248 43.0498 58.4034 44.8865 57.0147 49.7083C55.2786 56.0222 53.7741 56.5962 53.4269 56.5962C53.0797 56.5962 52.8483 56.8257 52.7325 57.1702C51.691 63.8284 46.3673 72.094 38.1502 74.9641C34.794 76.1121 31.0906 76.1121 27.6186 74.9641C19.0544 72.094 14.0779 63.5989 13.1521 57.1702C13.1521 56.8257 12.8049 56.5962 12.4577 56.5962C12.1105 56.5962 10.7217 56.0222 8.86997 49.823ZM41.9693 49.134L38.1501 45.3457C38.0344 45.231 37.9186 45.1162 38.1501 45.0012C37.1085 43.8533 37.2242 42.1313 38.3816 41.0981C39.5389 40.0649 41.2749 40.1797 42.3165 41.3276L42.4322 41.4426L42.5479 41.3276C42.5479 41.3276 42.5479 41.2129 42.6637 41.2129C43.821 40.1797 45.557 40.2944 46.5986 41.4426C47.6401 42.5906 47.5244 44.3125 46.3671 45.3457L42.5479 49.134C42.4322 49.2488 42.085 49.2488 41.9693 49.134ZM22.5262 59.7773V59.5476C22.5262 58.6294 23.3363 57.8257 24.2622 57.8257H41.7378H42.085C43.0108 57.9404 43.5895 58.8589 43.4738 59.7773C42.6636 64.0249 39.3074 67.354 35.0253 68.1577C29.2387 69.3057 23.6835 65.5173 22.5262 59.7773ZM24.378 49.1343C24.2622 49.249 23.915 49.249 23.7993 49.1343L20.0959 45.3459C18.9385 44.3127 18.8228 42.5908 19.8644 41.4426C20.906 40.2947 22.642 40.1799 23.7993 41.2131L24.0308 41.4426L24.1465 41.5576L24.2622 41.4426C25.3038 40.4094 27.0398 40.2947 28.1971 41.3279C29.2387 42.3611 29.3544 44.083 28.3128 45.2312C28.3128 45.2312 28.3128 45.2786 28.282 45.3125C28.2649 45.3313 28.2384 45.3459 28.1971 45.3459L24.378 49.1343Z" fill="#FFDE00"/>
</svg>
