<svg width="72" height="70" viewBox="0 0 72 70" fill="none" xmlns="http://www.w3.org/2000/svg">
<path fill-rule="evenodd" clip-rule="evenodd" d="M64.2638 2.14853C65.5703 0.85675 67.5111 0.479595 69.2068 1.1875C70.902 1.89541 72 3.54002 72 5.37714V38.5603C72 55.433 58.2681 69.1649 41.3955 69.1649H30.6046C13.7319 69.1649 0 55.433 0 38.5603V5.37714C0 3.54002 1.098 1.89541 2.79338 1.18764C4.48903 0.479875 6.43106 0.857032 7.73747 2.14867L16.8899 11.1976C22.6613 7.72811 29.2196 5.90547 36.0003 5.90547C42.7809 5.90547 49.3393 7.72797 55.1108 11.1976L64.2638 2.14853ZM41.3954 63.4203C55.1005 63.4203 66.2553 52.2653 66.2553 38.5603H66.2555V8.26178L57.4968 16.9032C56.5142 17.8746 54.9609 18.0088 53.8248 17.2231C51.0373 15.2956 48.0641 13.8761 44.8088 12.9546V16.4041C44.8088 17.9905 43.5227 19.2765 41.9363 19.2765C40.35 19.2765 39.0639 17.9904 39.0639 16.4041V11.8428C36.9577 11.6369 35.0428 11.6369 32.9363 11.8428V16.404C32.9363 17.9904 31.6503 19.2764 30.0639 19.2764C28.4775 19.2764 27.1915 17.9902 27.1915 16.404V12.9544C23.9362 13.8758 20.9617 15.2953 18.1742 17.2227C17.0381 18.0084 15.4695 17.8741 14.487 16.9028L5.74453 8.26164V38.5603C5.74453 52.2655 16.8995 63.4203 30.6045 63.4203H41.3954ZM45.3826 45.5746C45.7204 44.0246 47.2504 43.0418 48.8007 43.3797C50.3506 43.7175 51.3333 45.2478 50.996 46.7979C50.013 51.3086 45.9461 54.5825 41.3259 54.5825C39.4252 54.5825 37.5878 54.0363 36.0165 53.0366C34.4451 54.0363 32.6077 54.5826 30.707 54.5826C26.0866 54.5826 22.0199 51.309 21.0369 46.7983C20.6992 45.2485 21.6818 43.7186 23.2318 43.3809C24.7816 43.0432 26.3121 44.0268 26.6498 45.5769C27.0619 47.4674 28.7681 48.8419 30.7069 48.8419C31.9105 48.8419 33.0546 48.3226 33.8459 47.4098C33.908 47.3383 33.9731 47.2777 34.0411 47.2144L34.0599 47.1969L30.2297 43.3837C28.8487 42.0027 29.8268 39.6755 31.78 39.6755H40.2855C42.2387 39.6755 43.2169 42.0026 41.8358 43.3837L37.9887 47.1964C38.0575 47.2614 38.124 47.3291 38.1866 47.4012C38.978 48.314 40.1221 48.8375 41.3256 48.8375C43.2644 48.8375 44.9708 47.4653 45.3826 45.5746ZM48.9907 36.1011C50.688 36.1011 52.064 34.7251 52.064 33.0277C52.064 31.3303 50.688 29.9543 48.9907 29.9543C47.2933 29.9543 45.9173 31.3303 45.9173 33.0277C45.9173 34.7251 47.2933 36.1011 48.9907 36.1011ZM26.0827 33.0277C26.0827 34.7251 24.7067 36.1011 23.0093 36.1011C21.312 36.1011 19.936 34.7251 19.936 33.0277C19.936 31.3303 21.312 29.9543 23.0093 29.9543C24.7067 29.9543 26.0827 31.3303 26.0827 33.0277Z" fill="#FFDE00"/>
</svg>
