<svg width="100" height="66" viewBox="0 0 100 66" fill="none" xmlns="http://www.w3.org/2000/svg">
<path fill-rule="evenodd" clip-rule="evenodd" d="M70.7724 18.8101C73.4124 17.27 76.4924 16.5 79.7924 16.5C90.3524 16.5 99.0424 25.1899 99.0424 35.75C99.0424 46.0901 90.9024 54.45 80.5624 55C79.2424 58.6299 77.3724 62.04 74.8424 65.01C74.4024 65.6699 73.5224 66 72.7524 66H26.1124C25.3424 66 24.5724 65.6699 24.0224 65.01C20.3924 60.6101 17.9724 55.3301 16.9824 49.72L0.372391 20.5701C-0.177612 19.6899 -0.0676115 18.7 0.372391 17.8201C0.922394 17.05 1.80238 16.5 2.79239 16.5H11.0424C11.8124 16.5 12.4724 16.8301 13.0224 17.3799L21.8224 26.1799C26.4424 19.03 33.7024 13.8601 42.1724 11.8799C41.6224 10.78 41.2924 9.57007 41.2924 8.25C41.2924 3.73999 45.0324 0 49.5424 0C54.0524 0 57.7924 3.73999 57.7924 8.25C57.7924 9.57007 57.4624 10.78 56.9124 11.8799C62.0824 13.0901 66.8124 15.51 70.7724 18.8101ZM7.52238 22L16.9824 38.6101C17.4224 35.97 18.1924 33.55 19.1824 31.24L9.94238 22H7.52238ZM52.2924 8.25C52.2924 6.70996 51.0824 5.5 49.5424 5.5C48.0024 5.5 46.7924 6.70996 46.7924 8.25C46.7924 9.79004 48.0024 11 49.5424 11C51.0824 11 52.2924 9.79004 52.2924 8.25ZM22.0424 44C22.0424 49.9399 24.0224 55.77 27.5424 60.5H71.5424C75.0624 55.77 77.0424 49.9399 77.0424 44C77.0424 28.8201 64.7224 16.5 49.5424 16.5C34.3624 16.5 22.0424 28.8201 22.0424 44ZM82.5424 44C82.5424 45.76 82.4324 47.52 82.1024 49.28C88.5924 48.1799 93.5424 42.5701 93.5424 35.75C93.5424 28.1599 87.3824 22 79.7924 22C78.1424 22 76.4924 22.3301 74.9524 22.8799C79.6824 28.6001 82.5424 35.97 82.5424 44ZM24.7924 44C24.7924 40.8101 25.4524 37.73 26.6624 34.76C26.9924 33.6599 28.0924 33 29.1924 33H70.0024C71.1024 33 72.0924 33.77 72.5324 34.76C73.7424 37.73 74.4024 40.8101 74.4024 44C74.4024 48.51 73.3024 52.6899 71.1024 56.4299C70.5524 57.2 69.6724 57.75 68.6824 57.75H30.5124C29.5224 57.75 28.5324 57.3101 28.0924 56.4299C25.8924 52.5801 24.7924 48.3999 24.7924 44Z" fill="#FFDE00"/>
</svg>
