<svg width="76" height="84" viewBox="0 0 76 84" fill="none" xmlns="http://www.w3.org/2000/svg">
<path fill-rule="evenodd" clip-rule="evenodd" d="M71.3 29.6101C67.0286 21.6138 57.8261 13 38 13C18.1739 13 8.97141 21.6138 4.7 29.6101V4.94175V3C4.7 1.89543 3.87173 1 2.85 1C1.82827 1 1 1.89543 1 3V4.94175V51.0583V52.0291V63C1 63 1 83 38 83C75 83 75 63 75 63V52.0291V51.0583V4.94175V3C75 1.89543 74.1717 1 73.15 1C72.1283 1 71.3 1.89543 71.3 3V4.94175V29.6101ZM4.7 63V43C4.7 43 4.7149 42.5522 4.7556 42.0902C4.83191 41.2239 4.97138 40.2438 5.19002 39.1802C5.81893 36.1207 6.95116 33.0606 8.70359 30.2188C13.7762 21.993 23.0132 17 38 17C52.9868 17 62.2238 21.993 67.2964 30.2188C69.0488 33.0606 70.1811 36.1207 70.81 39.1802C71.0286 40.2438 71.1681 41.2239 71.2444 42.0902C71.2871 42.575 71.3 42.8884 71.3 43V63C71.3 62.989 71.299 62.999 71.2959 63.0287C71.2913 63.0736 71.2821 63.1634 71.2649 63.2937C71.2052 63.746 71.0924 64.2742 70.9118 64.8601C70.3658 66.6308 69.3636 68.4366 67.7587 70.1716C62.7481 75.5885 53.2811 79 38 79C22.7189 79 13.2519 75.5885 8.24129 70.1716C6.63643 68.4366 5.63422 66.6308 5.08825 64.8601C4.90759 64.2742 4.79485 63.746 4.73508 63.2937C4.71785 63.1633 4.70866 63.0736 4.70406 63.0287C4.70102 62.999 4.7 62.989 4.7 63ZM24.1297 64C18.5067 64 13.95 59.0759 13.95 53C13.95 46.9213 18.5017 42 24.1297 42H51.8703C57.4933 42 62.05 46.9241 62.05 53C62.05 59.0787 57.4983 64 51.8703 64H24.1297ZM24.1297 38C16.455 38 10.25 44.7157 10.25 53C10.25 61.2861 16.4642 68 24.1297 68H51.8703C59.545 68 65.75 61.2843 65.75 53C65.75 44.7139 59.5358 38 51.8703 38H24.1297ZM23.2561 53.6356C22.9273 53.8853 22.7064 54.1253 22.6295 54.2316L21.4902 55.8074L18.575 53.3442L19.7142 51.7684C19.9992 51.3743 20.4694 50.8636 21.1292 50.3626C22.1963 49.5521 23.4334 49.0416 24.8215 49.0007L24.9218 49.0007C26.318 49.0415 27.5587 49.5524 28.6242 50.3645C29.2846 50.8678 29.7535 51.3814 30.0369 51.7787L31.1666 53.3625L28.2365 55.8051L27.1068 54.2213C27.0332 54.1181 26.8169 53.8811 26.4923 53.6337C25.999 53.2578 25.4571 53.0299 24.8722 53.0012C24.8888 53.0004 24.9055 52.9998 24.9223 52.9993L24.8219 52.9993C24.8387 52.9998 24.8554 53.0004 24.8722 53.0012C24.2947 53.0299 23.753 53.2582 23.2561 53.6356ZM49.1561 53.6356C48.8274 53.8853 48.6064 54.1253 48.5295 54.2316L47.3902 55.8074L44.475 53.3442L45.6142 51.7684C45.8992 51.3743 46.3694 50.8636 47.0291 50.3626C48.0963 49.5521 49.3334 49.0416 50.7215 49.0007L50.8218 49.0007C52.218 49.0415 53.4587 49.5524 54.5242 50.3645C55.1846 50.8678 55.6535 51.3814 55.9369 51.7787L57.0666 53.3625L54.1365 55.8051L53.0068 54.2213C52.9332 54.1181 52.7169 53.8811 52.3923 53.6337C51.899 53.2578 51.3572 53.0299 50.7722 53.0012C50.7888 53.0004 50.8055 52.9998 50.8223 52.9993L50.7219 52.9993C50.7387 52.9998 50.7554 53.0004 50.7722 53.0012C50.1947 53.0299 49.653 53.2582 49.1561 53.6356Z" fill="#FFDE00"/>
<path d="M71.3 29.6101L70.418 30.0813C70.6341 30.4859 71.0978 30.6916 71.5429 30.5802C71.9879 30.4687 72.3 30.0688 72.3 29.6101H71.3ZM4.7 29.6101H3.7C3.7 30.0688 4.01214 30.4687 4.45715 30.5802C4.90216 30.6916 5.3659 30.4859 5.58205 30.0813L4.7 29.6101ZM4.7 43L3.70055 42.9667C3.70018 42.9778 3.7 42.9889 3.7 43H4.7ZM3.7 63C3.7 63.5523 4.14772 64 4.7 64C5.25229 64 5.7 63.5523 5.7 63H3.7ZM4.7556 42.0902L5.75174 42.1779V42.1779L4.7556 42.0902ZM5.19002 39.1802L4.2105 38.9789L5.19002 39.1802ZM8.70359 30.2188L7.85242 29.6939L8.70359 30.2188ZM67.2964 30.2188L66.4452 30.7437L67.2964 30.2188ZM70.81 39.1802L69.8305 39.3816V39.3816L70.81 39.1802ZM71.2444 42.0902L72.2405 42.0024V42.0024L71.2444 42.0902ZM70.3 63C70.3 63.5523 70.7477 64 71.3 64C71.8523 64 72.3 63.5523 72.3 63H70.3ZM71.2959 63.0287L72.2907 63.1308L72.2907 63.1306L71.2959 63.0287ZM71.2649 63.2937L70.2735 63.1627L71.2649 63.2937ZM70.9118 64.8601L71.8674 65.1547L70.9118 64.8601ZM67.7587 70.1716L68.4928 70.8506L67.7587 70.1716ZM8.24129 70.1716L8.97539 69.4925H8.97539L8.24129 70.1716ZM5.08825 64.8601L6.04386 64.5654L6.04386 64.5654L5.08825 64.8601ZM4.73508 63.2937L3.7437 63.4247L4.73508 63.2937ZM4.70406 63.0287L5.69886 62.9268L4.70406 63.0287ZM22.6295 54.2316L21.8191 53.6457L21.8191 53.6457L22.6295 54.2316ZM23.2561 53.6356L23.8609 54.432H23.8609L23.2561 53.6356ZM21.4902 55.8074L20.8448 56.5713C21.0574 56.7509 21.3353 56.8338 21.6116 56.8C21.8878 56.7663 22.1376 56.6189 22.3006 56.3933L21.4902 55.8074ZM18.575 53.3442L17.7646 52.7583C17.4582 53.1822 17.5301 53.7705 17.9296 54.108L18.575 53.3442ZM19.7142 51.7684L18.9038 51.1825L19.7142 51.7684ZM21.1292 50.3626L21.734 51.1589H21.734L21.1292 50.3626ZM24.8215 49.0007L24.8213 48.0007C24.8115 48.0007 24.8018 48.0009 24.792 48.0012L24.8215 49.0007ZM24.9218 49.0007L24.9511 48.0012C24.9413 48.0009 24.9315 48.0007 24.9217 48.0007L24.9218 49.0007ZM28.6242 50.3645L28.018 51.1598L28.6242 50.3645ZM30.0369 51.7787L29.2228 52.3594L29.2228 52.3594L30.0369 51.7787ZM31.1666 53.3625L31.8069 54.1306C32.2087 53.7957 32.2844 53.2077 31.9807 52.7818L31.1666 53.3625ZM28.2365 55.8051L27.4224 56.3858C27.584 56.6124 27.8327 56.7613 28.1087 56.7969C28.3847 56.8325 28.6631 56.7514 28.8768 56.5732L28.2365 55.8051ZM27.1068 54.2213L27.921 53.6406L27.9209 53.6406L27.1068 54.2213ZM26.4923 53.6337L27.0984 52.8384L27.0984 52.8384L26.4923 53.6337ZM24.9223 52.9993L24.9517 53.9988C25.498 53.9828 25.9302 53.531 25.9221 52.9845C25.9141 52.438 25.4687 51.9992 24.9221 51.9993L24.9223 52.9993ZM24.8219 52.9993L24.8217 51.9993C24.2752 51.9994 23.8299 52.4382 23.822 52.9847C23.814 53.5312 24.2463 53.9829 24.7926 53.9988L24.8219 52.9993ZM48.5295 54.2316L47.7191 53.6457L48.5295 54.2316ZM49.1561 53.6356L48.5513 52.8393V52.8393L49.1561 53.6356ZM47.3902 55.8074L46.7448 56.5713C46.9574 56.7509 47.2353 56.8338 47.5116 56.8C47.7879 56.7663 48.0376 56.6189 48.2006 56.3933L47.3902 55.8074ZM44.475 53.3442L43.6646 52.7583C43.3582 53.1822 43.4301 53.7705 43.8296 54.108L44.475 53.3442ZM45.6142 51.7684L44.8038 51.1825L45.6142 51.7684ZM47.0291 50.3626L46.4243 49.5662L47.0291 50.3626ZM50.7215 49.0007L50.7213 48.0007C50.7115 48.0007 50.7018 48.0009 50.692 48.0012L50.7215 49.0007ZM50.8218 49.0007L50.8511 48.0012C50.8413 48.0009 50.8315 48.0007 50.8217 48.0007L50.8218 49.0007ZM54.5242 50.3645L53.918 51.1598L54.5242 50.3645ZM55.9369 51.7787L55.1227 52.3594L55.1228 52.3594L55.9369 51.7787ZM57.0666 53.3625L57.7069 54.1306C58.1087 53.7957 58.1844 53.2077 57.8807 52.7818L57.0666 53.3625ZM54.1365 55.8051L53.3224 56.3858C53.484 56.6124 53.7327 56.7613 54.0087 56.7969C54.2847 56.8325 54.5631 56.7514 54.7768 56.5732L54.1365 55.8051ZM53.0068 54.2213L52.1927 54.802L52.1927 54.802L53.0068 54.2213ZM52.3923 53.6337L52.9985 52.8384V52.8384L52.3923 53.6337ZM50.8223 52.9993L50.8517 53.9988C51.398 53.9828 51.8302 53.531 51.8221 52.9845C51.8141 52.438 51.3687 51.9992 50.8221 51.9993L50.8223 52.9993ZM50.7219 52.9993L50.7217 51.9993C50.1752 51.9994 49.7299 52.4382 49.722 52.9847C49.714 53.5312 50.1463 53.9829 50.6926 53.9988L50.7219 52.9993ZM38 14C47.7651 14 54.8395 16.12 59.9727 19.1664C65.105 22.2123 68.3546 26.2185 70.418 30.0813L72.182 29.1389C69.974 25.0054 66.4866 20.7065 60.9934 17.4465C55.501 14.1869 48.061 12 38 12V14ZM5.58205 30.0813C7.64544 26.2185 10.8949 22.2123 16.0273 19.1664C21.1605 16.12 28.2349 14 38 14V12C27.939 12 20.499 14.1869 15.0066 17.4465C9.51339 20.7065 6.02596 25.0054 3.81795 29.1389L5.58205 30.0813ZM3.7 4.94175V29.6101H5.7V4.94175H3.7ZM3.7 3V4.94175H5.7V3H3.7ZM5.7 3C5.7 1.41799 4.49599 0 2.85 0V2C3.24746 2 3.7 2.37288 3.7 3H5.7ZM2.85 0C1.20401 0 0 1.41799 0 3H2C2 2.37288 2.45254 2 2.85 2V0ZM2 4.94175V3H0V4.94175H2ZM2 51.0583V4.94175H0V51.0583H2ZM2 52.0291V51.0583H0V52.0291H2ZM2 63V52.0291H0V63H2ZM38 82C19.675 82 10.7343 77.0509 6.3591 72.321C4.1627 69.9465 3.07445 67.584 2.53373 65.8304C2.26304 64.9524 2.12947 64.2265 2.06365 63.7284C2.03075 63.4794 2.01483 63.2878 2.00714 63.1631C2.00329 63.1007 2.00151 63.0551 2.00068 63.0275C2.00027 63.0138 2.0001 63.0045 2.00003 62.9998C2 62.9975 1.99999 62.9963 1.99999 62.9964C1.99999 62.9964 1.99999 62.9967 2 62.9973C2 62.9976 2 62.9983 2 62.9984C2 62.9992 2 63 1 63C0 63 4.17233e-07 63.001 1.90735e-06 63.002C2.80142e-06 63.0025 5.66244e-06 63.0036 8.76188e-06 63.0045C1.5378e-05 63.0064 2.64049e-05 63.0085 4.4167e-05 63.0109C7.96318e-05 63.0158 0.000141859 63.0219 0.000248909 63.0292C0.000463009 63.0438 0.000856519 63.0632 0.00157404 63.0872C0.00300896 63.1353 0.0057407 63.202 0.0109292 63.2862C0.0213039 63.4544 0.0415161 63.6925 0.0808838 63.9904C0.159588 64.586 0.315089 65.4226 0.622518 66.4196C1.23805 68.416 2.4623 71.0535 4.8909 73.679C9.76567 78.9491 19.325 84 38 84V82ZM75 63C74 63 74 62.9992 74 62.9984C74 62.9983 74 62.9976 74 62.9973C74 62.9967 74 62.9964 74 62.9964C74 62.9963 74 62.9975 74 62.9998C73.9999 63.0045 73.9997 63.0138 73.9993 63.0275C73.9985 63.0551 73.9967 63.1007 73.9929 63.1631C73.9852 63.2878 73.9693 63.4794 73.9364 63.7284C73.8705 64.2265 73.737 64.9524 73.4663 65.8304C72.9256 67.584 71.8373 69.9465 69.6409 72.321C65.2657 77.0509 56.325 82 38 82V84C56.675 84 66.2343 78.9491 71.1091 73.679C73.5377 71.0535 74.7619 68.416 75.3775 66.4196C75.6849 65.4226 75.8404 64.586 75.9191 63.9904C75.9585 63.6925 75.9787 63.4544 75.9891 63.2862C75.9943 63.202 75.997 63.1353 75.9984 63.0872C75.9991 63.0632 75.9995 63.0438 75.9997 63.0292C75.9999 63.0219 75.9999 63.0158 76 63.0109C76 63.0085 76 63.0064 76 63.0045C76 63.0036 76 63.0025 76 63.002C76 63.001 76 63 75 63ZM74 52.0291V63H76V52.0291H74ZM74 51.0583V52.0291H76V51.0583H74ZM74 4.94175V51.0583H76V4.94175H74ZM74 3V4.94175H76V3H74ZM76 3C76 1.41799 74.796 0 73.15 0V2C73.5475 2 74 2.37287 74 3H76ZM73.15 0C71.504 0 70.3 1.41799 70.3 3H72.3C72.3 2.37287 72.7525 2 73.15 2V0ZM72.3 4.94175V3H70.3V4.94175H72.3ZM72.3 29.6101V4.94175H70.3V29.6101H72.3ZM3.7 43V63H5.7V43H3.7ZM3.75946 42.0024C3.73769 42.2495 3.72306 42.4897 3.71388 42.6665C3.70927 42.7554 3.70597 42.8293 3.70382 42.8815C3.70274 42.9076 3.70194 42.9284 3.7014 42.9428C3.70114 42.9501 3.70093 42.9558 3.70079 42.9598C3.70072 42.9618 3.70067 42.9634 3.70063 42.9646C3.70061 42.9651 3.70059 42.9656 3.70058 42.966C3.70057 42.9662 3.70057 42.9663 3.70056 42.9664C3.70056 42.9665 3.70056 42.9666 3.70056 42.9666C3.70056 42.9666 3.70056 42.9667 3.70056 42.9667C3.70055 42.9667 3.70055 42.9667 4.7 43C5.69945 43.0333 5.69945 43.0333 5.69945 43.0333C5.69945 43.0333 5.69944 43.0333 5.69944 43.0333C5.69944 43.0334 5.69944 43.0334 5.69944 43.0334C5.69944 43.0334 5.69944 43.0334 5.69944 43.0334C5.69945 43.0333 5.69945 43.0331 5.69946 43.0329C5.69948 43.0323 5.69951 43.0313 5.69956 43.0299C5.69966 43.0272 5.69982 43.0228 5.70003 43.0169C5.70047 43.005 5.70116 42.9872 5.70211 42.9641C5.70402 42.9179 5.707 42.851 5.71119 42.7702C5.71964 42.6075 5.7328 42.3929 5.75174 42.1779L3.75946 42.0024ZM4.2105 38.9789C3.98447 40.0785 3.83927 41.0965 3.75946 42.0024L5.75174 42.1779C5.82456 41.3514 5.9583 40.4092 6.16954 39.3816L4.2105 38.9789ZM7.85242 29.6939C6.03247 32.6452 4.86046 35.8169 4.2105 38.9789L6.16954 39.3816C6.77739 36.4245 7.86985 33.476 9.55476 30.7437L7.85242 29.6939ZM38 16C22.7757 16 13.158 21.0903 7.85242 29.6939L9.55476 30.7437C14.3944 22.8957 23.2507 18 38 18V16ZM68.1476 29.6939C62.842 21.0903 53.2243 16 38 16V18C52.7493 18 61.6056 22.8957 66.4452 30.7437L68.1476 29.6939ZM71.7895 38.9789C71.1395 35.8169 69.9675 32.6452 68.1476 29.6939L66.4452 30.7437C68.1301 33.476 69.2226 36.4245 69.8305 39.3816L71.7895 38.9789ZM72.2405 42.0024C72.1607 41.0965 72.0155 40.0785 71.7895 38.9789L69.8305 39.3816C70.0417 40.4092 70.1754 41.3514 70.2483 42.1779L72.2405 42.0024ZM72.3 43C72.3 42.8453 72.2842 42.4983 72.2405 42.0024L70.2483 42.1779C70.29 42.6517 70.3 42.9316 70.3 43H72.3ZM72.3 63V43H70.3V63H72.3ZM72.2907 63.1306C72.2933 63.1055 72.2924 63.1159 72.2906 63.1293C72.2904 63.1306 72.2871 63.1572 72.2805 63.1908C72.2795 63.1957 72.2674 63.2613 72.2387 63.3397C72.2349 63.3499 72.1815 63.5117 72.0413 63.6666C71.9687 63.7468 71.7663 63.9444 71.4258 63.9877C71.0326 64.0377 70.7428 63.8514 70.5964 63.7065C70.4678 63.5792 70.4068 63.449 70.3845 63.3984C70.3568 63.3354 70.3413 63.2825 70.3335 63.2529C70.3177 63.1937 70.311 63.1461 70.3086 63.1275C70.303 63.0856 70.3015 63.0528 70.3011 63.0439C70.2999 63.0203 70.3 63.0022 70.3 63H72.3C72.3 62.9951 72.3 62.9749 72.2988 62.9498C72.2984 62.9402 72.2968 62.9068 72.2912 62.8646C72.2887 62.8457 72.282 62.798 72.2662 62.7387C72.2583 62.709 72.2429 62.656 72.2151 62.593C72.1929 62.5424 72.1318 62.4122 72.0032 62.2849C71.8568 62.14 71.5669 61.9537 71.1737 62.0036C70.8333 62.0469 70.6308 62.2445 70.5582 62.3248C70.418 62.4798 70.3644 62.6416 70.3607 62.6519C70.3319 62.7306 70.3197 62.7966 70.3186 62.8021C70.3117 62.8368 70.3081 62.8652 70.3076 62.8689C70.3046 62.892 70.3016 62.9223 70.3011 62.9269L72.2907 63.1306ZM72.2563 63.4247C72.2754 63.2803 72.2857 63.1794 72.2907 63.1308L70.3012 62.9267C70.2969 62.9678 70.2889 63.0465 70.2735 63.1627L72.2563 63.4247ZM71.8674 65.1547C72.063 64.5201 72.1886 63.9372 72.2563 63.4247L70.2735 63.1627C70.2217 63.5548 70.1218 64.0282 69.9561 64.5654L71.8674 65.1547ZM68.4928 70.8506C70.194 69.0115 71.275 67.0759 71.8674 65.1547L69.9561 64.5654C69.4566 66.1857 68.5331 67.8617 67.0246 69.4925L68.4928 70.8506ZM38 80C53.3805 80 63.1983 76.5744 68.4928 70.8506L67.0246 69.4925C62.2978 74.6026 53.1817 78 38 78V80ZM7.50719 70.8506C12.8017 76.5744 22.6195 80 38 80V78C22.8183 78 13.7022 74.6026 8.97539 69.4925L7.50719 70.8506ZM4.13265 65.1547C4.725 67.0759 5.80598 69.0115 7.5072 70.8506L8.97539 69.4925C7.46688 67.8617 6.54345 66.1857 6.04386 64.5654L4.13265 65.1547ZM3.7437 63.4247C3.81142 63.9372 3.93697 64.5201 4.13265 65.1547L6.04386 64.5654C5.87821 64.0282 5.77828 63.5548 5.72646 63.1627L3.7437 63.4247ZM3.70927 63.1306C3.71426 63.1794 3.72461 63.2802 3.7437 63.4247L5.72646 63.1627C5.7111 63.0465 5.70305 62.9677 5.69886 62.9268L3.70927 63.1306ZM5.7 63C5.7 63.0022 5.70005 63.0203 5.69894 63.044C5.69852 63.0529 5.69698 63.0857 5.69144 63.1275C5.68896 63.1461 5.6823 63.1936 5.66659 63.2527C5.65874 63.2823 5.64336 63.335 5.61581 63.3978C5.59364 63.4482 5.53308 63.5776 5.40574 63.7044C5.26139 63.8481 4.97385 64.0357 4.58099 63.9885C4.23912 63.9475 4.03485 63.7502 3.96108 63.6692C3.8194 63.5137 3.7654 63.3508 3.76169 63.3407C3.73275 63.262 3.7206 63.1961 3.71962 63.1911C3.71293 63.1574 3.70959 63.1307 3.70942 63.1295C3.70764 63.1159 3.7067 63.1055 3.70927 63.1306L5.69886 62.9268C5.69839 62.9222 5.69541 62.892 5.69236 62.8688C5.69188 62.8651 5.68827 62.8366 5.68135 62.8017C5.68025 62.7962 5.668 62.7299 5.63897 62.6509C5.63521 62.6407 5.58117 62.4777 5.43945 62.3222C5.36566 62.2412 5.16137 62.0439 4.81948 62.0028C4.4266 61.9556 4.13904 62.1433 3.99468 62.287C3.86731 62.4138 3.80674 62.5432 3.78456 62.5937C3.75698 62.6565 3.74159 62.7093 3.73372 62.7389C3.71798 62.7981 3.71129 62.8457 3.70879 62.8646C3.7032 62.9068 3.70161 62.9401 3.70116 62.9497C3.69998 62.9748 3.7 62.995 3.7 63H5.7ZM12.95 53C12.95 59.5538 17.8828 65 24.1297 65V63C19.1305 63 14.95 58.5981 14.95 53H12.95ZM24.1297 41C17.8777 41 12.95 46.4436 12.95 53H14.95C14.95 47.3991 19.1257 43 24.1297 43V41ZM51.8703 41H24.1297V43H51.8703V41ZM63.05 53C63.05 46.4462 58.1172 41 51.8703 41V43C56.8695 43 61.05 47.4019 61.05 53H63.05ZM51.8703 65C58.1223 65 63.05 59.5564 63.05 53H61.05C61.05 58.6009 56.8743 63 51.8703 63V65ZM24.1297 65H51.8703V63H24.1297V65ZM11.25 53C11.25 45.1931 17.0794 39 24.1297 39V37C15.8306 37 9.25 44.2384 9.25 53H11.25ZM24.1297 67C17.088 67 11.25 60.8082 11.25 53H9.25C9.25 61.764 15.8403 69 24.1297 69V67ZM51.8703 67H24.1297V69H51.8703V67ZM64.75 53C64.75 60.8069 58.9206 67 51.8703 67V69C60.1694 69 66.75 61.7616 66.75 53H64.75ZM51.8703 39C58.912 39 64.75 45.1918 64.75 53H66.75C66.75 44.236 60.1597 37 51.8703 37V39ZM24.1297 39H51.8703V37H24.1297V39ZM23.4399 54.8175C23.4343 54.8252 23.4671 54.7816 23.5505 54.6993C23.6276 54.6233 23.7327 54.5294 23.8609 54.432L22.6513 52.8393C22.2653 53.1324 21.9676 53.4403 21.8191 53.6457L23.4399 54.8175ZM22.3006 56.3933L23.4399 54.8175L21.8191 53.6457L20.6798 55.2215L22.3006 56.3933ZM17.9296 54.108L20.8448 56.5713L22.1356 55.0436L19.2204 52.5804L17.9296 54.108ZM18.9038 51.1825L17.7646 52.7583L19.3854 53.9301L20.5246 52.3543L18.9038 51.1825ZM20.5243 49.5662C19.7899 50.1239 19.2493 50.7047 18.9038 51.1825L20.5246 52.3543C20.749 52.0439 21.1489 51.6032 21.734 51.1589L20.5243 49.5662ZM24.792 48.0012C23.1641 48.0491 21.7302 48.6503 20.5243 49.5662L21.734 51.1589C22.6623 50.4539 23.7028 50.0341 24.8509 50.0003L24.792 48.0012ZM24.9217 48.0007L24.8213 48.0007L24.8216 50.0007L24.922 50.0007L24.9217 48.0007ZM29.2303 49.5691C28.0243 48.65 26.5862 48.0489 24.9511 48.0012L24.8926 50.0003C26.0497 50.0341 27.0932 50.4549 28.018 51.1598L29.2303 49.5691ZM30.851 51.198C30.5066 50.7152 29.9665 50.1301 29.2303 49.5691L28.018 51.1598C28.6027 51.6054 29.0004 52.0477 29.2228 52.3594L30.851 51.198ZM31.9807 52.7818L30.851 51.198L29.2228 52.3594L30.3524 53.9432L31.9807 52.7818ZM28.8768 56.5732L31.8069 54.1306L30.5262 52.5944L27.5962 55.037L28.8768 56.5732ZM26.2927 54.802L27.4224 56.3858L29.0506 55.2244L27.921 53.6406L26.2927 54.802ZM25.8861 54.4291C26.0119 54.525 26.1145 54.6172 26.1893 54.6914C26.2707 54.7722 26.3007 54.8131 26.2927 54.802L27.9209 53.6406C27.7748 53.4357 27.4803 53.1294 27.0984 52.8384L25.8861 54.4291ZM24.8233 54C25.168 54.0169 25.5204 54.1503 25.8861 54.4291L27.0984 52.8384C26.4776 52.3652 25.7463 52.0428 24.921 52.0024L24.8233 54ZM24.9217 54C24.9317 53.9995 24.9416 53.9991 24.9517 53.9988L24.8928 51.9997C24.8694 52.0004 24.846 52.0013 24.8226 52.0025L24.9217 54ZM24.9221 51.9993L24.8217 51.9993L24.822 53.9993L24.9224 53.9993L24.9221 51.9993ZM24.7926 53.9988C24.803 53.9991 24.8132 53.9995 24.8232 54L24.9211 52.0024C24.8977 52.0013 24.8744 52.0004 24.8511 51.9997L24.7926 53.9988ZM23.8609 54.432C24.2333 54.1492 24.5863 54.0167 24.9217 54L24.8226 52.0025C24.0031 52.0431 23.2727 52.3673 22.6513 52.8393L23.8609 54.432ZM49.3399 54.8175C49.3343 54.8252 49.3671 54.7816 49.4505 54.6993C49.5276 54.6233 49.6327 54.5294 49.7609 54.432L48.5513 52.8393C48.1653 53.1324 47.8676 53.4403 47.7191 53.6457L49.3399 54.8175ZM48.2006 56.3933L49.3399 54.8175L47.7191 53.6457L46.5798 55.2215L48.2006 56.3933ZM43.8296 54.108L46.7448 56.5713L48.0356 55.0436L45.1204 52.5804L43.8296 54.108ZM44.8038 51.1825L43.6646 52.7583L45.2854 53.9301L46.4246 52.3543L44.8038 51.1825ZM46.4243 49.5662C45.6899 50.1239 45.1493 50.7047 44.8038 51.1825L46.4246 52.3543C46.649 52.0439 47.0489 51.6032 47.634 51.1589L46.4243 49.5662ZM50.692 48.0012C49.0641 48.0491 47.6302 48.6503 46.4243 49.5662L47.634 51.1589C48.5623 50.4539 49.6028 50.0341 50.7509 50.0003L50.692 48.0012ZM50.8217 48.0007L50.7213 48.0007L50.7216 50.0007L50.822 50.0007L50.8217 48.0007ZM55.1303 49.5691C53.9243 48.65 52.4862 48.0489 50.8511 48.0012L50.7926 50.0003C51.9497 50.0341 52.9932 50.4549 53.918 51.1598L55.1303 49.5691ZM56.751 51.198C56.4066 50.7152 55.8665 50.1301 55.1303 49.5691L53.918 51.1598C54.5027 51.6054 54.9004 52.0477 55.1227 52.3594L56.751 51.198ZM57.8807 52.7818L56.751 51.198L55.1228 52.3594L56.2524 53.9432L57.8807 52.7818ZM54.7768 56.5732L57.7069 54.1306L56.4263 52.5944L53.4962 55.037L54.7768 56.5732ZM52.1927 54.802L53.3224 56.3858L54.9506 55.2244L53.8209 53.6406L52.1927 54.802ZM51.7861 54.4291C51.9119 54.525 52.0145 54.6172 52.0893 54.6914C52.1707 54.7722 52.2007 54.8131 52.1927 54.802L53.821 53.6406C53.6748 53.4357 53.3803 53.1294 52.9985 52.8384L51.7861 54.4291ZM50.7233 54C51.0681 54.0169 51.4204 54.1503 51.7861 54.4291L52.9985 52.8384C52.3776 52.3652 51.6463 52.0428 50.821 52.0024L50.7233 54ZM50.8217 54C50.8317 53.9995 50.8416 53.9991 50.8517 53.9988L50.7929 51.9997C50.7694 52.0004 50.746 52.0013 50.7226 52.0025L50.8217 54ZM50.8221 51.9993L50.7217 51.9993L50.722 53.9993L50.8224 53.9993L50.8221 51.9993ZM50.6926 53.9988C50.703 53.9991 50.7132 53.9995 50.7232 54L50.8211 52.0024C50.7977 52.0013 50.7744 52.0004 50.7511 51.9997L50.6926 53.9988ZM49.7609 54.432C50.1333 54.1492 50.4863 54.0167 50.8217 54L50.7226 52.0025C49.9031 52.0431 49.1727 52.3673 48.5513 52.8393L49.7609 54.432Z" fill="#FFDE00"/>
</svg>
