<svg width="72" height="88" viewBox="0 0 72 88" fill="none" xmlns="http://www.w3.org/2000/svg">
<path fill-rule="evenodd" clip-rule="evenodd" d="M36.0179 6.76392C37.8859 6.76392 39.4 5.24976 39.4 3.38208C39.4 1.51416 37.8859 0 36.0179 0C34.1501 0 32.636 1.51416 32.636 3.38208C32.636 5.24976 34.1501 6.76392 36.0179 6.76392ZM46.051 51.675C47.8658 51.675 49.337 50.2039 49.337 48.3889C49.337 46.5742 47.8658 45.103 46.051 45.103C44.2362 45.103 42.765 46.5742 42.765 48.3889C42.765 50.2039 44.2362 51.675 46.051 51.675ZM29.27 48.3889C29.27 50.2039 27.7988 51.675 25.984 51.675C24.1692 51.675 22.698 50.2039 22.698 48.3889C22.698 46.5742 24.1692 45.103 25.984 45.103C27.7988 45.103 29.27 46.5742 29.27 48.3889ZM69.28 16.9741C70.7601 16.9741 71.96 15.7742 71.96 14.2939C71.96 12.814 70.7601 11.614 69.28 11.614C67.7998 11.614 66.6 12.814 66.6 14.2939C66.6 15.7742 67.7998 16.9741 69.28 16.9741ZM5.35999 14.2939C5.35999 15.7742 4.1601 16.9741 2.67999 16.9741C1.19989 16.9741 0 15.7742 0 14.2939C0 12.814 1.19989 11.614 2.67999 11.614C4.1601 11.614 5.35999 12.814 5.35999 14.2939ZM66.677 20.0349C63.535 22.1301 59.553 22.709 55.807 22.23C48.1429 21.249 41.563 16.731 36.019 11.614C30.474 16.731 23.894 21.249 16.23 22.23C12.484 22.71 8.50195 22.1311 5.35999 20.0349L9.39996 39.5559C8.935 43.0649 6.84601 56.97 1.81598 66.6121C1.81598 66.6121 3.867 70.0601 6.91595 70.9031C6.91595 70.9031 13.2599 87.697 36.017 87.697C58.7739 87.697 65.1179 70.9031 65.1179 70.9031C68.167 70.0601 70.218 66.6121 70.218 66.6121C65.1899 56.9761 63.101 43.0811 62.635 39.562L66.677 20.0349ZM35.942 20.0291L39.2469 25.7461L35.942 31.7051L32.637 25.7461L35.942 20.0291ZM56.8519 67.4929C55.153 69.895 52.63 71.5129 49.958 72.4131C45.5239 73.908 40.4459 73.917 35.9409 72.7471C31.4349 73.917 26.358 73.907 21.924 72.4131C19.253 71.512 16.73 69.894 15.03 67.4929C9.86298 60.1909 11.796 47.689 13.676 39.1179C18.665 38.021 27.4349 36.415 36.019 36.415C44.511 36.415 53.183 37.9871 58.198 39.082C60.08 47.655 62.025 60.1809 56.8519 67.4929ZM36.0179 60.5342C36.0179 60.5342 38.277 58.4221 41.5919 59.1853C43.474 59.6187 44.8262 61.1248 46.1521 62.6016C47.9902 64.6489 49.778 66.6401 52.8569 65.6392C52.8569 65.6392 51.713 70.0981 45.1709 70.1572C38.6289 70.2153 36.0179 65.0522 36.0179 65.0522C36.0179 65.0522 33.407 70.2163 26.865 70.1572C20.3229 70.0981 19.179 65.6392 19.179 65.6392C22.2571 66.6401 24.0446 64.6492 25.8827 62.6021C27.2089 61.125 28.5614 59.6187 30.444 59.1853C33.7589 58.4221 36.0179 60.5342 36.0179 60.5342Z" fill="#FFDE00"/>
</svg>
