<svg width="72" height="50" viewBox="0 0 72 50" fill="none" xmlns="http://www.w3.org/2000/svg">
<path fill-rule="evenodd" clip-rule="evenodd" d="M57.5 4.1001C55.7 5.6001 54.6 6.5 52 6.5C49.4 6.5 48.3 5.6001 46.5 4.1001C44.7 2.6001 41.4 0 36 0C30.6 0 27.6 2.3999 25.5 4.1001L25.3508 4.22095C23.3605 5.83325 22.5375 6.5 20 6.5C17.4 6.5 16.3 5.6001 14.5 4.1001C12.7 2.6001 9.39999 0 4 0H0V8H4C6.60001 8 7.70001 8.8999 9.5 10.3999C11.3 11.8999 14.6 14.5 20 14.5C25.4 14.5 28.4 12.1001 30.5 10.3999L30.6492 10.2791C32.6395 8.66675 33.4625 8 36 8C38.6 8 39.7 8.8999 41.5 10.3999C43.3 11.8999 46.6 14.5 52 14.5C57.4 14.5 60.4 12.1001 62.5 10.3999L62.649 10.2793C64.6395 8.66675 65.4625 8 68 8H72V0H68C62.6 0 59.6 2.30005 57.5 4.1001ZM57.5 21.4001C55.7 22.9001 54.6 23.8 52 23.8C49.4 23.8 48.3 22.9001 46.5 21.4001C44.7 19.9001 41.4 17.3 36 17.3C30.6 17.3 27.6 19.7 25.5 21.4001L25.3508 21.521C23.3605 23.1333 22.5375 23.8 20 23.8C17.4 23.8 16.3 22.9001 14.5 21.4001C12.7 19.9001 9.39999 17.3 4 17.3H0V25.3H4C6.60001 25.3 7.70001 26.2 9.5 27.7C11.3 29.2 14.6 31.8 20 31.8C25.4 31.8 28.4 29.4001 30.5 27.7L30.6492 27.5791C32.6395 25.9668 33.4625 25.3 36 25.3C38.6 25.3 39.7 26.2 41.5 27.7C43.3 29.2 46.6 31.8 52 31.8C57.4 31.8 60.4 29.4001 62.5 27.7L62.649 27.5793C64.6395 25.9668 65.4625 25.3 68 25.3H72V17.3H68C62.6 17.3 59.6 19.6001 57.5 21.4001ZM52 41.1001C54.6 41.1001 55.7 40.2002 57.5 38.7002C59.6 37 62.6 34.6001 68 34.6001H72V42.6001H68C65.4625 42.6001 64.6395 43.2668 62.649 44.8794L62.5 45C60.4 46.7002 57.4 49.1001 52 49.1001C46.6 49.1001 43.3 46.5 41.5 45C39.7 43.5 38.6 42.6001 36 42.6001C33.4625 42.6001 32.6395 43.2668 30.6492 44.8792L30.5 45C28.4 46.7002 25.4 49.1001 20 49.1001C14.6 49.1001 11.3 46.5 9.5 45C7.70001 43.5 6.60001 42.6001 4 42.6001H0V34.6001H4C9.39999 34.6001 12.7 37.2002 14.5 38.7002C16.3 40.2002 17.4 41.1001 20 41.1001C22.5375 41.1001 23.3605 40.4333 25.3508 38.821L25.5 38.7002C27.6 37 30.6 34.6001 36 34.6001C41.4 34.6001 44.7 37.2002 46.5 38.7002C48.3 40.2002 49.4 41.1001 52 41.1001Z" fill="#FFDE00"/>
</svg>
