<svg width="1366" height="362" viewBox="0 0 1366 362" fill="none" xmlns="http://www.w3.org/2000/svg">
<path d="M141.6 238.5C141.6 255.5 139.6 271.5 135.6 286.5C131.933 301.5 125.266 314.667 115.6 326C106.266 337 93.4329 345.833 77.0996 352.5C61.0996 358.833 40.7663 362 16.0996 362C-6.56706 362 -26.0671 359.333 -42.4004 354C-58.7337 348.333 -72.2337 341.833 -82.9004 334.5L-56.9004 274C-47.2337 279.667 -36.9004 284.667 -25.9004 289C-14.9004 293.333 -2.90039 295.5 10.0996 295.5C29.0996 295.5 42.7663 290.833 51.0996 281.5C59.4329 272.167 63.5996 256.5 63.5996 234.5V8.49999H141.6V238.5ZM382.248 181.5C382.248 198.5 384.248 213.833 388.248 227.5C392.581 241.167 398.581 253 406.248 263C414.248 272.667 423.915 280.167 435.248 285.5C446.581 290.833 459.581 293.5 474.248 293.5C488.581 293.5 501.415 290.833 512.748 285.5C524.415 280.167 534.081 272.667 541.748 263C549.748 253 555.748 241.167 559.748 227.5C564.081 213.833 566.248 198.5 566.248 181.5C566.248 164.5 564.081 149.167 559.748 135.5C555.748 121.5 549.748 109.667 541.748 100C534.081 90 524.415 82.3333 512.748 77C501.415 71.6666 488.581 69 474.248 69C459.581 69 446.581 71.8333 435.248 77.5C423.915 82.8333 414.248 90.5 406.248 100.5C398.581 110.167 392.581 122 388.248 136C384.248 149.667 382.248 164.833 382.248 181.5ZM646.748 181.5C646.748 211.167 642.248 237.333 633.248 260C624.581 282.333 612.581 301.167 597.248 316.5C581.915 331.5 563.581 342.833 542.248 350.5C521.248 358.167 498.581 362 474.248 362C450.581 362 428.248 358.167 407.248 350.5C386.248 342.833 367.915 331.5 352.248 316.5C336.581 301.167 324.248 282.333 315.248 260C306.248 237.333 301.748 211.167 301.748 181.5C301.748 151.833 306.415 125.833 315.748 103.5C325.081 80.8333 337.581 61.8333 353.248 46.5C369.248 31.1666 387.581 19.6666 408.248 12C429.248 4.33331 451.248 0.499974 474.248 0.499974C497.915 0.499974 520.248 4.33331 541.248 12C562.248 19.6666 580.581 31.1666 596.248 46.5C611.915 61.8333 624.248 80.8333 633.248 103.5C642.248 125.833 646.748 151.833 646.748 181.5ZM811.768 8.49999H889.768V355H811.768V8.49999ZM1302.47 355C1280.14 315.333 1255.97 276.167 1229.97 237.5C1203.97 198.833 1176.3 162.333 1146.97 128V355H1069.97V8.49999H1133.47C1144.47 19.5 1156.64 33 1169.97 49C1183.3 65 1196.8 82.1667 1210.47 100.5C1224.47 118.5 1238.3 137.333 1251.97 157C1265.64 176.333 1278.47 195 1290.47 213V8.49999H1367.97V355H1302.47Z" fill="url(#paint0_linear)"/>
<defs>
<linearGradient id="paint0_linear" x1="710" y1="-111" x2="710" y2="464" gradientUnits="userSpaceOnUse">
<stop stop-color="white" stop-opacity="0.5"/>
<stop offset="1" stop-color="white" stop-opacity="0.2"/>
</linearGradient>
</defs>
</svg>
