<svg width="105" height="41" viewBox="0 0 105 41" fill="none" xmlns="http://www.w3.org/2000/svg">
<path d="M104.237 38.56C103.919 37.64 103.76 36.68 103.68 35.64C103.601 34.56 103.561 33.48 103.601 32.36C103.601 31.24 103.641 30.08 103.72 28.88C103.8 27.68 103.84 26.48 103.84 25.32C103.84 24.2 103.72 23.2 103.482 22.28C103.243 21.36 102.806 20.52 102.209 19.84C101.613 19.16 100.777 18.64 99.7832 18.28C98.789 17.92 97.5562 17.76 96.1246 17.76C94.4941 17.76 92.9431 17.92 91.432 18.2C89.9208 18.48 88.6085 18.88 87.5347 19.4L87.0575 19.6L88.6482 24.56L89.2447 24.28C89.9208 23.96 90.8354 23.68 91.9489 23.48C93.0624 23.28 94.1362 23.16 95.1304 23.16C95.9257 23.16 96.9597 23.28 97.3176 23.88C97.5164 24.2 97.7153 24.88 97.596 26.2C97.2778 26.2 96.9597 26.2 96.6415 26.2C95.4485 26.2 94.2952 26.28 93.2613 26.4C91.7899 26.6 90.4775 27 89.4436 27.52C88.3301 28.08 87.4552 28.84 86.8984 29.76C86.3019 30.68 85.9838 31.84 85.9838 33.16C85.9838 34.12 86.1428 35 86.461 35.76C86.7791 36.52 87.2563 37.2 87.8131 37.8C88.4096 38.36 89.0857 38.8 89.9208 39.12C90.7161 39.44 91.6308 39.56 92.625 39.56C94.2157 39.56 95.528 39.24 96.562 38.56C97.2778 38.12 97.8743 37.56 98.3913 37L99.0674 39.28H104.476L104.237 38.56ZM97.5562 30.48V32.4C97.3176 32.8 96.9199 33.24 96.4427 33.6C95.9257 34 95.2099 34.2 94.335 34.2C93.6987 34.2 93.2613 34.04 92.9034 33.72C92.5852 33.4 92.4262 33 92.4262 32.4C92.4262 32 92.5455 31.72 92.7841 31.48C93.0624 31.2 93.4601 30.96 93.9373 30.8C94.4941 30.64 95.0906 30.52 95.8064 30.48C96.0848 30.44 96.4029 30.44 96.6813 30.44C96.9597 30.44 97.2778 30.44 97.5562 30.48ZM69.8381 38.64L69.4801 38.84C69.0029 39.08 68.3269 39.28 67.4122 39.52C66.4976 39.76 65.5431 39.84 64.5887 39.84C62.9582 39.84 61.6459 39.44 60.771 38.64C59.8563 37.84 59.3791 36.52 59.3791 34.72V12.8L65.6624 10.6V32C65.6624 33.04 65.8215 33.52 65.9408 33.76C66.0204 33.92 66.1794 34.12 66.6169 34.12C66.8952 34.12 67.1736 34.08 67.452 34.04C67.7304 34 68.0485 33.88 68.486 33.72L69.162 33.44L69.8381 38.64ZM55.8398 38.64L55.4819 38.8C55.0047 39.04 54.3286 39.24 53.414 39.48C52.4993 39.72 51.5449 39.8 50.5905 39.8C48.96 39.8 47.6476 39.4 46.7727 38.6C45.8581 37.8 45.3809 36.48 45.3809 34.68V17.24L51.6642 15.04V32C51.6642 33.04 51.8233 33.52 51.9426 33.76C52.0221 33.92 52.1812 34.12 52.6186 34.12C52.897 34.12 53.1754 34.08 53.4537 34.04C53.7321 34 54.0503 33.88 54.4877 33.72L55.1637 33.44L55.8398 38.64ZM83.8761 38.64L83.5182 38.84C83.041 39.08 82.3649 39.28 81.4502 39.52C80.5356 39.76 79.5812 39.84 78.6267 39.84C76.9963 39.84 75.6839 39.44 74.809 38.64C73.8944 37.84 73.4172 36.52 73.4172 34.72V8.32L79.7005 6.12V32C79.7005 33.04 79.8595 33.52 79.9788 33.76C80.0584 33.92 80.2175 34.12 80.6549 34.12C80.9333 34.12 81.2116 34.08 81.49 34.04C81.7684 34 82.0865 33.88 82.524 33.72L83.2 33.44L83.8761 38.64ZM43.2334 39.44H36.9501L32.3768 31.84L31.2235 33V39.48H25.0993V8.32L31.2235 6.12V26.32L35.8764 19.12H41.6427L35.598 27.96L43.2334 39.44ZM52.2209 3.84C52.2209 5.96 50.5109 7.68 48.4032 7.68C46.2955 7.68 44.5855 5.96 44.5855 3.84C44.5855 1.72 46.2955 0 48.4032 0C50.5109 0 52.2209 1.72 52.2209 3.84ZM10.2659 40.04C8.11847 40.04 6.20961 39.84 4.57913 39.44C2.94866 39.04 1.75562 38.64 0.960266 38.24L2.86912 33.2C3.18726 33.36 3.58494 33.56 4.10192 33.76C4.57913 33.96 5.17565 34.16 5.81194 34.32C6.44822 34.48 7.12427 34.64 7.80032 34.76C8.51614 34.88 9.23196 34.92 9.98755 34.92C11.7373 34.92 13.0894 34.64 14.0041 34.04C14.9188 33.44 15.396 32.56 15.396 31.32C15.396 30.4 15.0381 29.64 14.4018 29.08C13.7257 28.52 12.8906 27.96 11.8566 27.52C10.8624 27.04 9.74895 26.56 8.55591 26.04C7.36288 25.52 6.24938 24.92 5.25519 24.2C4.26099 23.48 3.3861 22.56 2.71005 21.44C2.034 20.36 1.71585 18.96 1.71585 17.24C1.71585 15.76 1.95446 14.48 2.43167 13.4C2.90889 12.32 3.62471 11.4 4.4996 10.68C5.41426 9.96 6.48799 9.44 7.68102 9.08C8.91382 8.72 10.3057 8.56 11.8169 8.56C13.5667 8.56 15.2369 8.72 16.7481 9C18.299 9.32 19.5716 9.76 20.5658 10.32L18.7365 15.28C18.1002 14.88 17.1458 14.52 15.9129 14.16C14.6404 13.84 13.2883 13.68 11.8169 13.68C10.4648 13.68 9.39104 13.96 8.67521 14.52C7.95939 15.08 7.56172 15.8 7.56172 16.72C7.56172 17.6 7.91963 18.32 8.55591 18.88C9.23196 19.44 10.0671 20 11.101 20.48C12.0952 20.96 13.2087 21.48 14.4018 22C15.5948 22.52 16.7083 23.16 17.7025 23.88C18.6967 24.6 19.5716 25.52 20.2476 26.6C20.9237 27.68 21.2418 29.04 21.2418 30.64C21.2418 32.24 20.9635 33.64 20.4465 34.8C19.9295 35.96 19.1739 36.96 18.2195 37.72C17.2651 38.48 16.1118 39.08 14.7597 39.44C13.4076 39.84 11.8964 40.04 10.2659 40.04Z" fill="white"/>
</svg>
