<svg width="356" height="131" viewBox="0 0 356 131" fill="none" xmlns="http://www.w3.org/2000/svg">
<path d="M336.483 125.32C335.449 122.33 334.932 119.21 334.674 115.83C334.415 112.32 334.286 108.81 334.415 105.17C334.415 101.53 334.545 97.76 334.803 93.86C335.062 89.96 335.191 86.06 335.191 82.29C335.191 78.65 334.803 75.4 334.028 72.41C333.252 69.42 331.831 66.69 329.892 64.48C327.954 62.27 325.24 60.58 322.009 59.41C318.779 58.24 314.772 57.72 310.12 57.72C304.822 57.72 299.782 58.24 294.871 59.15C289.96 60.06 285.695 61.36 282.206 63.05L280.655 63.7L285.825 79.82L287.763 78.91C289.96 77.87 292.932 76.96 296.551 76.31C300.169 75.66 303.659 75.27 306.889 75.27C309.474 75.27 312.834 75.66 313.997 77.61C314.643 78.65 315.289 80.86 314.902 85.15C313.868 85.15 312.834 85.15 311.8 85.15C307.923 85.15 304.175 85.41 300.815 85.8C296.034 86.45 291.769 87.75 288.409 89.44C284.791 91.26 281.948 93.73 280.139 96.72C278.2 99.71 277.166 103.48 277.166 107.77C277.166 110.89 277.683 113.75 278.717 116.22C279.751 118.69 281.302 120.9 283.111 122.85C285.049 124.67 287.246 126.1 289.96 127.14C292.545 128.18 295.517 128.57 298.748 128.57C303.917 128.57 308.182 127.53 311.542 125.32C313.868 123.89 315.806 122.07 317.486 120.25L319.683 127.66H337.259L336.483 125.32ZM314.772 99.06V105.3C313.997 106.6 312.705 108.03 311.154 109.2C309.474 110.5 307.148 111.15 304.305 111.15C302.237 111.15 300.815 110.63 299.652 109.59C298.619 108.55 298.102 107.25 298.102 105.3C298.102 104 298.489 103.09 299.265 102.31C300.169 101.4 301.462 100.62 303.012 100.1C304.822 99.58 306.76 99.19 309.086 99.06C309.991 98.93 311.025 98.93 311.929 98.93C312.834 98.93 313.868 98.93 314.772 99.06ZM224.699 125.58L223.535 126.23C221.985 127.01 219.788 127.66 216.815 128.44C213.843 129.22 210.742 129.48 207.64 129.48C202.342 129.48 198.077 128.18 195.234 125.58C192.262 122.98 190.711 118.69 190.711 112.84V41.6L211.129 34.45V104C211.129 107.38 211.646 108.94 212.034 109.72C212.292 110.24 212.809 110.89 214.231 110.89C215.135 110.89 216.04 110.76 216.945 110.63C217.849 110.5 218.883 110.11 220.305 109.59L222.502 108.68L224.699 125.58ZM179.209 125.58L178.046 126.1C176.495 126.88 174.299 127.53 171.326 128.31C168.354 129.09 165.252 129.35 162.151 129.35C156.852 129.35 152.588 128.05 149.745 125.45C146.772 122.85 145.222 118.56 145.222 112.71V56.03L165.64 48.88V104C165.64 107.38 166.157 108.94 166.545 109.72C166.803 110.24 167.32 110.89 168.742 110.89C169.646 110.89 170.551 110.76 171.455 110.63C172.36 110.5 173.394 110.11 174.815 109.59L177.012 108.68L179.209 125.58ZM270.317 125.58L269.154 126.23C267.603 127.01 265.406 127.66 262.434 128.44C259.462 129.22 256.36 129.48 253.259 129.48C247.96 129.48 243.695 128.18 240.852 125.58C237.88 122.98 236.329 118.69 236.329 112.84V27.04L256.748 19.89V104C256.748 107.38 257.265 108.94 257.652 109.72C257.911 110.24 258.428 110.89 259.849 110.89C260.754 110.89 261.658 110.76 262.563 110.63C263.468 110.5 264.502 110.11 265.923 109.59L268.12 108.68L270.317 125.58ZM138.243 128.18H117.825L102.963 103.48L99.2154 107.25V128.31H79.3139V27.04L99.2154 19.89V85.54L114.335 62.14H133.074L113.431 90.87L138.243 128.18ZM167.449 12.48C167.449 19.37 161.892 24.96 155.043 24.96C148.194 24.96 142.637 19.37 142.637 12.48C142.637 5.59 148.194 0 155.043 0C161.892 0 167.449 5.59 167.449 12.48ZM31.1108 130.13C24.1323 130.13 17.9293 129.48 12.6308 128.18C7.33234 126.88 3.45542 125.58 0.870804 124.28L7.07388 107.9C8.10773 108.42 9.40003 109.07 11.08 109.72C12.6308 110.37 14.5693 111.02 16.637 111.54C18.7047 112.06 20.9016 112.58 23.0985 112.97C25.4247 113.36 27.7508 113.49 30.2062 113.49C35.8923 113.49 40.2862 112.58 43.2585 110.63C46.2308 108.68 47.7816 105.82 47.7816 101.79C47.7816 98.8 46.6185 96.33 44.5508 94.51C42.3539 92.69 39.64 90.87 36.28 89.44C33.0493 87.88 29.4308 86.32 25.5539 84.63C21.677 82.94 18.0585 80.99 14.8277 78.65C11.597 76.31 8.75388 73.32 6.55696 69.68C4.36003 66.17 3.32619 61.62 3.32619 56.03C3.32619 51.22 4.10157 47.06 5.65234 43.55C7.20311 40.04 9.52927 37.05 12.3723 34.71C15.3447 32.37 18.8339 30.68 22.7108 29.51C26.717 28.34 31.24 27.82 36.1508 27.82C41.837 27.82 47.2646 28.34 52.1754 29.25C57.2154 30.29 61.3508 31.72 64.5816 33.54L58.637 49.66C56.5693 48.36 53.4677 47.19 49.4616 46.02C45.3262 44.98 40.9323 44.46 36.1508 44.46C31.757 44.46 28.2677 45.37 25.9416 47.19C23.6154 49.01 22.3231 51.35 22.3231 54.34C22.3231 57.2 23.4862 59.54 25.5539 61.36C27.7508 63.18 30.4647 65 33.8246 66.56C37.0554 68.12 40.6739 69.81 44.5508 71.5C48.4277 73.19 52.0462 75.27 55.277 77.61C58.5077 79.95 61.3508 82.94 63.5477 86.45C65.7447 89.96 66.7785 94.38 66.7785 99.58C66.7785 104.78 65.8739 109.33 64.1939 113.1C62.5139 116.87 60.0585 120.12 56.957 122.59C53.8554 125.06 50.1077 127.01 45.7139 128.18C41.32 129.48 36.4093 130.13 31.1108 130.13Z" fill="white"/>
<path d="M348.237 40.25L347.118 39.75C347.908 39.6875 348.566 39.4375 349.092 39.0625C349.618 38.625 349.882 38 349.882 37.25C349.882 36.1875 349.487 35.4375 348.697 35C347.908 34.5625 346.987 34.375 345.868 34.375C345.211 34.375 344.487 34.4375 343.697 34.5C342.908 34.5625 342.316 34.625 341.921 34.75V44.4375H343.961V40L345.868 40.5625L348.368 44.4375H350.803L348.237 40.25ZM345.342 38.75H344.026V36.0625C344.158 36 344.421 35.9375 344.684 35.9375C344.947 35.9375 345.211 35.9375 345.539 35.9375C347.053 35.9375 347.842 36.375 347.842 37.25C347.842 37.8125 347.645 38.1875 347.184 38.4375C346.724 38.625 346.132 38.75 345.342 38.75ZM346 31.875C350.408 31.875 354.026 35.3125 354.026 39.5C354.026 43.6875 350.408 47.125 346 47.125C341.592 47.125 337.974 43.6875 337.974 39.5C337.974 35.3125 341.592 31.875 346 31.875ZM346 30C340.474 30 336 34.25 336 39.5C336 44.75 340.474 49 346 49C351.526 49 356 44.75 356 39.5C356 34.25 351.526 30 346 30Z" fill="white"/>
</svg>
