<svg width="45" height="38" viewBox="0 0 45 38" fill="none" xmlns="http://www.w3.org/2000/svg">
<path fill-rule="evenodd" clip-rule="evenodd" d="M0.00983281 10.218C0.00996585 10.2203 0.0100989 10.2227 0.0100989 10.225C-0.00230079 10.5226 -0.632248 26.7906 10.45 34.5472C15.4996 38.0814 15.2456 37.6603 13.4475 34.6788C11.6867 31.7592 8.44516 26.3844 7.25279 19.8641C8.34182 20.22 9.5057 20.4221 10.7216 20.4221C16.6373 20.4221 21.4337 15.8506 21.4337 10.211C21.4337 4.57149 16.6378 0 10.7217 0C4.80546 0 0.00956673 4.57157 0.00956673 10.211C0.00956673 10.2134 0.00969977 10.2157 0.00983281 10.218ZM30.8186 19.864C31.9082 20.22 33.0721 20.422 34.2879 20.422C40.2037 20.422 45 15.8506 45 10.2111C45 4.5715 40.2042 0 34.2879 0C28.3717 0 23.5759 4.57158 23.5759 10.2111C23.5759 10.2157 23.5765 10.2204 23.5765 10.225C23.564 10.5226 22.9341 26.7907 34.0164 34.5472C39.066 38.0815 38.8121 37.6603 37.0138 34.6787C35.2529 31.7591 32.0113 26.3843 30.8186 19.864Z" fill="white"/>
</svg>
