<svg width="1366" height="347" viewBox="0 0 1366 347" fill="none" xmlns="http://www.w3.org/2000/svg">
<path d="M249.283 0.499991V67H144.783V347H66.7832V67H-37.7168V0.499991H249.283ZM339.412 347V0.499991H573.412V66H417.412V134H555.912V198H417.412V281.5H584.912V347H339.412ZM914.635 347C910.968 335 906.801 322.667 902.135 310C897.801 297.333 893.468 284.667 889.135 272H754.135C749.801 284.667 745.301 297.333 740.635 310C736.301 322.667 732.301 335 728.635 347H647.635C660.635 309.667 672.968 275.167 684.635 243.5C696.301 211.833 707.635 182 718.635 154C729.968 126 740.968 99.5 751.635 74.5C762.635 49.1666 773.968 24.5 785.635 0.499991H860.135C871.468 24.5 882.635 49.1666 893.635 74.5C904.635 99.5 915.635 126 926.635 154C937.968 182 949.468 211.833 961.135 243.5C972.801 275.167 985.135 309.667 998.135 347H914.635ZM821.135 79C819.468 84 816.968 90.8333 813.635 99.5C810.301 108.167 806.468 118.167 802.135 129.5C797.801 140.833 792.968 153.333 787.635 167C782.635 180.667 777.468 195 772.135 210H870.635C865.301 195 860.135 180.667 855.135 167C850.135 153.333 845.301 140.833 840.635 129.5C836.301 118.167 832.468 108.167 829.135 99.5C825.801 90.8333 823.135 84 821.135 79ZM1174.99 0.499991C1180.99 11.5 1187.82 25.1667 1195.49 41.5C1203.49 57.5 1211.65 75 1219.99 94C1228.65 112.667 1237.15 131.833 1245.49 151.5C1253.82 171.167 1261.65 189.667 1268.99 207C1276.32 189.667 1284.15 171.167 1292.49 151.5C1300.82 131.833 1309.15 112.667 1317.49 94C1326.15 75 1334.32 57.5 1341.99 41.5C1349.99 25.1667 1356.99 11.5 1362.99 0.499991H1433.99C1437.32 23.5 1440.32 49.3333 1442.99 78C1445.99 106.333 1448.49 136 1450.49 167C1452.82 197.667 1454.82 228.5 1456.49 259.5C1458.49 290.5 1460.15 319.667 1461.49 347H1385.49C1384.49 313.333 1383.15 276.667 1381.49 237C1379.82 197.333 1377.32 157.333 1373.99 117C1367.99 131 1361.32 146.5 1353.99 163.5C1346.65 180.5 1339.32 197.5 1331.99 214.5C1324.99 231.5 1318.15 247.833 1311.49 263.5C1304.82 278.833 1299.15 292 1294.49 303H1239.99C1235.32 292 1229.65 278.833 1222.99 263.5C1216.32 247.833 1209.32 231.5 1201.99 214.5C1194.99 197.5 1187.82 180.5 1180.49 163.5C1173.15 146.5 1166.49 131 1160.49 117C1157.15 157.333 1154.65 197.333 1152.99 237C1151.32 276.667 1149.99 313.333 1148.99 347H1072.99C1074.32 319.667 1075.82 290.5 1077.49 259.5C1079.49 228.5 1081.49 197.667 1083.49 167C1085.82 136 1088.32 106.333 1090.99 78C1093.99 49.3333 1097.15 23.5 1100.49 0.499991H1174.99Z" fill="url(#paint0_linear)"/>
<defs>
<linearGradient id="paint0_linear" x1="742" y1="-119" x2="742" y2="447" gradientUnits="userSpaceOnUse">
<stop stop-color="white" stop-opacity="0.5"/>
<stop offset="1" stop-color="white" stop-opacity="0.2"/>
</linearGradient>
</defs>
</svg>
