<svg width="283" height="51" viewBox="0 0 283 51" fill="none" xmlns="http://www.w3.org/2000/svg">
<path d="M21.2943 22.3643V21.6937C25.1072 21.4045 30.4637 19.6032 30.4637 11.7015C30.4637 2.76102 23.4976 1.80124 21.2019 1.80124H0V3.41841H2.86298V42.5197H0V44.0449H20.8193C25.8856 44.0449 31.1366 42.2305 31.1366 34.0526C31.1234 28.4517 29.118 23.1268 21.2943 22.3643ZM19.1965 37.3001C19.1965 42.6249 17.2835 42.5329 16.1356 42.5329H14.6052V22.7456H16.1356C17.2835 22.7456 19.1965 22.6535 19.1965 27.9783V37.3001ZM19.1965 15.9876C19.1965 21.3125 17.2835 21.2204 16.1356 21.2204H14.6052V3.41841H16.1356C17.2835 3.41841 19.1965 3.23434 19.1965 8.55917V15.9876ZM35.9918 3.41841H33.0365V1.80124H59.3838V16.9343H58.4339C57.1937 3.52359 50.5046 3.41841 48.4069 3.41841H47.6416V21.9698H48.209C52.0219 21.9698 53.5523 17.2104 53.3676 12.9242H54.4231V32.4223H53.3676C53.5655 28.1361 52.0351 23.4818 48.209 23.4818H47.6416V42.5066C55.6633 42.6906 58.4339 35.2753 59.0936 27.7548H60.149V44.0317H33.0365V42.5066H35.9918V3.41841ZM86.0214 42.5329V3.41841H88.8844V1.80124H65.4V3.41841H66.9305C67.8804 3.41841 69.2262 3.61562 69.2262 7.32328V19.6953C69.2262 36.8268 66.8381 42.5329 63.1176 42.5329H62.5371V51H63.487C63.6717 44.7154 65.9674 44.058 71.0337 44.058H81.1531C86.2193 44.058 88.5018 44.7285 88.6997 51H89.6497V42.5329H86.0214ZM74.2793 3.41841V42.5197H66.5479C69.9914 37.471 70.3608 30.1477 70.3608 19.6821V6.84996C70.3608 3.52359 71.4163 3.41841 72.2738 3.41841H74.2793ZM101.59 6.37664C101.59 3.70766 102.447 2.57695 103.885 2.57695C105.218 2.57695 106.181 3.7208 106.181 6.37664V39.6798C106.181 42.2436 105.231 43.3875 103.885 43.3875C102.447 43.3875 101.59 42.2436 101.59 39.6798V6.37664ZM89.1747 23.0217C89.1747 33.4872 94.1354 45.0046 103.872 45.0046C113.609 45.0046 118.477 33.4872 118.477 23.0217C118.477 12.464 113.609 0.946636 103.872 0.946636C94.1354 0.946636 89.1747 12.464 89.1747 23.0217ZM123.649 6.65275H123.557V37.2869C123.557 42.0464 125.18 42.5197 126.512 42.5197H127.277V44.0449H119.454V42.5197C120.694 42.6118 122.409 41.9412 122.409 37.2869V3.41841H119.454V1.80124H134.151L137.872 19.0247H138.07L141.896 1.80124H156.593V3.41841H153.73V42.5197H156.593V44.0449H139.125V42.5197H141.988V6.84996H141.803L133.492 44.058H131.869L123.649 6.65275ZM170.328 6.37664C170.328 3.70766 171.278 2.57695 172.623 2.57695C174.061 2.57695 174.919 3.7208 174.919 6.37664V39.6798C174.919 42.2436 174.061 43.3875 172.623 43.3875C171.291 43.3875 170.328 42.2436 170.328 39.6798V6.37664ZM158.018 23.0217C158.018 33.4872 162.887 45.0046 172.623 45.0046C182.36 45.0046 187.334 33.4872 187.334 23.0217C187.334 12.464 182.373 0.946636 172.623 0.946636C162.887 0.946636 158.018 12.464 158.018 23.0217ZM215.872 15.6984H214.816C213.866 8.84842 210.515 3.52359 206.702 3.52359C202.507 3.52359 202.309 9.70302 202.309 12.6613V32.1593C202.309 34.0657 202.401 41.297 207.177 41.297C212.52 41.297 214.618 33.9737 215.383 28.3596L216.347 28.6489C215.489 35.6961 212.811 45.0178 204.604 45.0178C194.762 45.0178 189.999 33.0271 189.999 22.9428C189.999 10.86 195.923 0.959784 204.604 0.959784C206.32 0.959784 208.905 1.52514 211.28 3.7208L214.447 0H215.41L215.872 15.6984ZM226.756 3.41841C221.321 3.89172 219.407 12.3589 219.025 16.9343H218.075V1.80124H247.193V16.9343H246.137C245.755 12.372 243.842 3.90487 238.498 3.41841V42.5197H241.942V44.0449H223.22V42.5197H226.756V3.41841ZM252.061 3.41841H249.198V1.80124H265.242V3.41841H263.817V31.2916H264.015L268.408 6.27146V3.41841H266.983V1.80124H283V3.41841H280.137V42.5197H283V44.0449H266.957V42.5197H268.382V12.9374H268.197L263.803 37.8654V42.5329H265.228V44.058H249.185V42.5329H252.048V3.41841H252.061Z" fill="#0C0E0F"/>
</svg>
